<svg xmlns="http://www.w3.org/2000/svg" viewBox="0 0 2700 1800"><filter id="b"><feGaussianBlur stdDeviation="12" /></filter><path fill="#414a45" d="M0 0h2700v1792H0z"/><g filter="url(#b)" transform="translate(5.3 5.3) scale(10.54688)" fill-opacity=".5"><ellipse fill="#cdfde9" rx="1" ry="1" transform="rotate(-93.8 58.8 -55) scale(19.99316 112.35183)"/><ellipse fill="#02070b" cx="210" cy="167" rx="234" ry="39"/><ellipse fill="#797d73" cx="134" cy="93" rx="123" ry="32"/><ellipse fill="#09140e" rx="1" ry="1" transform="matrix(.62606 -20.34653 248.92398 7.65936 97.7 38)"/><ellipse fill="#959298" rx="1" ry="1" transform="rotate(-87.2 84.8 29.2) scale(12.34308 43.37011)"/><ellipse fill="#20241d" rx="1" ry="1" transform="matrix(-43.4491 -.68255 .12778 -8.13383 130.6 101.4)"/><ellipse fill="#91b8a6" rx="1" ry="1" transform="matrix(29.4293 -5.13624 2.38906 13.6887 177.3 8.5)"/><path fill="#a8a3a0" d="M208 101l-69-26 39 36z"/><path fill="#d2cdd1" d="M266.2 94.1l4.8 13.3V53.7l-34.7 44z"/><ellipse fill="#979492" rx="1" ry="1" transform="matrix(55.42506 -1.89168 .13656 4.00117 57.6 66.7)"/></g></svg>