<svg xmlns="http://www.w3.org/2000/svg" viewBox="0 0 2851 1901"><filter id="b"><feGaussianBlur stdDeviation="12" /></filter><path fill="#3a4648" d="M0 0h2851v1893H0z"/><g filter="url(#b)" transform="translate(5.6 5.6) scale(11.13672)" fill-opacity=".5"><ellipse fill="#c1b8bb" cx="113" cy="90" rx="35" ry="35"/><ellipse fill="#000c0c" rx="1" ry="1" transform="matrix(-48.62495 52.93518 -31.02515 -28.49894 212.6 146.2)"/><ellipse fill="#fff6ff" cx="141" cy="39" rx="190" ry="3"/><ellipse fill="#8e8d94" cx="193" cy="71" rx="159" ry="14"/><ellipse fill="#000a0e" rx="1" ry="1" transform="matrix(-.30305 19.29096 -179.55064 -2.8206 74.3 163.3)"/><path fill="#d6cfca" d="M123 85h20v61h-20z"/><path fill="#15241e" d="M101 67h20v60h-20z"/><path fill="#d8d2cc" d="M42 59h21v30H42z"/><path fill="#958f71" d="M89 116l-20 28 124-1z"/><path fill="#d3ced8" d="M186.6 60l10.8-3.2-.9 58.6-10.6-21.3z"/></g></svg>