<svg xmlns="http://www.w3.org/2000/svg" viewBox="0 0 752 501"><filter id="b"><feGaussianBlur stdDeviation="12" /></filter><path fill="#47452a" d="M0 0h752v499H0z"/><g filter="url(#b)" transform="translate(1.5 1.5) scale(2.9375)" fill-opacity=".5"><ellipse fill="#d2f0ff" rx="1" ry="1" transform="matrix(2.0114 23.95316 -83.4421 7.00683 52.5 16.1)"/><ellipse fill="#0e1600" rx="1" ry="1" transform="rotate(-127.8 43.3 -2.8) scale(28.80109 18.45579)"/><ellipse fill="#080d00" cx="238" cy="67" rx="94" ry="94"/><path fill="#dceffc" d="M122.8 52.6l-36.5-45 24.9-20.2 36.5 45z"/><ellipse fill="#a07a00" rx="1" ry="1" transform="matrix(39.76288 38.4771 -30.62293 31.64625 30 83.6)"/><path fill="#e7ffff" d="M107-9.6L-16.2 37.7-27 9.7 96.2-37.8z"/><ellipse fill="#090900" rx="1" ry="1" transform="matrix(10.05325 22.12464 -42.9189 19.50199 27.7 153)"/><path fill="#0e1300" d="M77 18l-32-5L6 42z"/><ellipse fill="#080400" rx="1" ry="1" transform="matrix(-10.98179 27.43512 -18.84921 -7.545 96.2 79.8)"/><ellipse fill="#494f78" rx="1" ry="1" transform="rotate(-41.4 270.4 -153) scale(20.16468 38.1834)"/></g></svg>