<svg xmlns="http://www.w3.org/2000/svg" viewBox="0 0 1955 1295"><filter id="b"><feGaussianBlur stdDeviation="12" /></filter><path fill="#ada4a3" d="M0 0h1955v1290H0z"/><g filter="url(#b)" transform="translate(3.8 3.8) scale(7.63672)" fill-opacity=".5"><ellipse fill="#fff" cx="128" cy="13" rx="85" ry="85"/><ellipse fill="#3a0000" rx="1" ry="1" transform="matrix(-24.28898 -30.42628 44.05448 -35.16823 152.6 148.3)"/><path fill="#4b525a" d="M0 0h45v169H0z"/><ellipse fill="#4a4e41" cx="239" cy="101" rx="12" ry="255"/><ellipse fill="#fff" rx="1" ry="1" transform="rotate(25 -29 323.3) scale(89.62789 40.88456)"/><ellipse fill="#ff2853" rx="1" ry="1" transform="rotate(-114 145.4 11) scale(33.615 13.11431)"/><ellipse fill="#221609" cx="158" cy="156" rx="31" ry="31"/><ellipse fill="#7d888a" rx="1" ry="1" transform="matrix(5.94754 26.84001 -36.57426 8.10457 132 113)"/><ellipse fill="#dad7d1" rx="1" ry="1" transform="matrix(-20.24235 .74369 -4.9301 -134.1921 64.9 112.3)"/><ellipse fill="#151711" cx="39" cy="82" rx="4" ry="187"/></g></svg>