<svg xmlns="http://www.w3.org/2000/svg" viewBox="0 0 6388 3593"><filter id="b"><feGaussianBlur stdDeviation="12" /></filter><path fill="#544e43" d="M0 0h6388v3568H0z"/><g filter="url(#b)" transform="translate(12.5 12.5) scale(24.95313)" fill-opacity=".5"><ellipse fill="#fff" rx="1" ry="1" transform="matrix(-5.79156 -41.836 84.91334 -11.75497 82.1 0)"/><path fill="#fff" d="M4.3-11.8l255-4.4.4 30-255 4.4z"/><ellipse fill="#0f0700" rx="1" ry="1" transform="rotate(-97.9 130 -41.9) scale(52.98348 187.57617)"/><ellipse fill="#fff9e8" rx="1" ry="1" transform="matrix(28.2863 4.98764 -7.28 41.28694 75.6 22.8)"/><path fill="#fff" d="M221.2-30.1l55.4 36L260.8 30 205.4-6z"/><ellipse fill="#251402" cx="6" cy="90" rx="34" ry="71"/><ellipse fill="#282216" rx="1" ry="1" transform="rotate(151.6 68.1 41) scale(49.30253 26.72569)"/><ellipse fill="#f3f7fa" rx="1" ry="1" transform="rotate(-171.5 27.9 3.4) scale(69.94189 20.71521)"/><ellipse fill="#815434" rx="1" ry="1" transform="matrix(-38.09414 20.85593 -7.37567 -13.47194 94.8 53.3)"/><ellipse fill="azure" cx="199" rx="34" ry="15"/></g></svg>