<svg xmlns="http://www.w3.org/2000/svg" viewBox="0 0 4752 3168"><filter id="b"><feGaussianBlur stdDeviation="12" /></filter><path fill="#242f29" d="M0 0h4752v3155H0z"/><g filter="url(#b)" transform="translate(9.3 9.3) scale(18.5625)" fill-opacity=".5"><ellipse fill="#6d9ec5" rx="1" ry="1" transform="matrix(-40.08892 -20.17411 23.58979 -46.87637 112.7 151)"/><path fill="#bc835e" d="M100 52.4l7-20.8 35 12-7 20.8z"/><ellipse fill="#071b0e" cx="244" cy="80" rx="106" ry="106"/><path fill="#1d180e" d="M12 0h82v135H12z"/><path fill="#8ca1ad" d="M97 101h42v25H97z"/><ellipse fill="#532c1a" cx="117" cy="79" rx="31" ry="28"/><path fill="#8a7241" d="M26 86l23-3-59-51z"/><path d="M137 182.6l-14.3 4.4-9.7-31.6 14.3-4.4z"/><path fill="#8798ab" d="M99.3 152.7l-35.9 18 9-27.2 46.7-33.1z"/><ellipse fill="#0e1b0d" cy="128" rx="51" ry="51"/></g></svg>