<svg xmlns="http://www.w3.org/2000/svg" viewBox="0 0 5757 3238"><filter id="b"><feGaussianBlur stdDeviation="12" /></filter><path fill="#494434" d="M0 0h5757v3215H0z"/><g filter="url(#b)" transform="translate(11.2 11.2) scale(22.48828)" fill-opacity=".5"><ellipse fill="#f3b87e" rx="1" ry="1" transform="matrix(83.7742 40.13788 -12.07458 25.2016 89.3 16.5)"/><ellipse cx="224" cy="81" rx="66" ry="42"/><ellipse fill="#000704" cy="82" rx="70" ry="70"/><ellipse fill="#a48362" cx="108" cy="119" rx="75" ry="17"/><ellipse fill="#989da9" rx="1" ry="1" transform="matrix(-38.26565 -9.84911 3.07556 -11.94914 199.6 9.5)"/><path fill="#ffcb95" d="M72-11l23 47 51-52z"/><ellipse fill="#000300" cx="254" cy="72" rx="22" ry="69"/><ellipse fill="#320" rx="1" ry="1" transform="matrix(-.83829 -30.31367 9.2377 -.25546 115.5 55.5)"/><path fill="#c0a488" d="M70 157l29-57 11 51z"/><ellipse fill="#09271b" cx="68" cy="82" rx="26" ry="33"/></g></svg>