<svg xmlns="http://www.w3.org/2000/svg" viewBox="0 0 6000 4000"><filter id="b"><feGaussianBlur stdDeviation="12" /></filter><path fill="#373737" d="M0 0h6000v3984H0z"/><g filter="url(#b)" transform="translate(11.7 11.7) scale(23.4375)" fill-opacity=".5"><ellipse fill="#626462" cx="84" cy="63" rx="54" ry="54"/><ellipse fill="#b2b3b2" rx="1" ry="1" transform="matrix(-15.95368 -9.22795 2.18887 -3.7842 115.1 53)"/><ellipse fill="#272827" cx="247" cy="47" rx="102" ry="102"/><path fill="#979796" d="M42.5 44.8l3 58-8 .4-3-58z"/><path fill="#2c2c2c" d="M135 68L97 46 19 185z"/><ellipse fill="#8a8e8b" rx="1" ry="1" transform="matrix(-17.9892 -5.91124 2.00587 -6.1043 125.9 87)"/><path fill="#898b89" d="M201 125.3l-40.4 39.4 17.8-36.4 2.3 2.8z"/><path fill="#bfbfbd" d="M44 53h20v8H44z"/><path fill="#b2b3b1" d="M132.6 121.5l.8-3 17.1-2-13.8 11.1z"/><path fill="#737473" d="M112.5 36.2L87-5.8 138.7 35l3.6-33z"/></g></svg>