<svg xmlns="http://www.w3.org/2000/svg" viewBox="0 0 3932 2211"><filter id="b"><feGaussianBlur stdDeviation="12" /></filter><path fill="#737469" d="M0 0h3932v2196H0z"/><g filter="url(#b)" transform="translate(7.7 7.7) scale(15.35938)" fill-opacity=".5"><path fill="#dae5f0" d="M271-2L116 70-16 0z"/><ellipse fill="#272710" rx="1" ry="1" transform="matrix(7.1905 -18.89889 238.3324 90.67892 187.6 112)"/><path fill="#090700" d="M-16 83.5l102.2 17.7L16 121.6h-30z"/><ellipse fill="#1e1e10" rx="1" ry="1" transform="matrix(-70.0402 23.43513 -3.84996 -11.5063 215.3 47.3)"/><path fill="#b2aea0" d="M73 85L-16 8l54.4 57.4-54.4 6.7z"/><ellipse fill="#ad9b6e" cx="200" cy="80" rx="32" ry="22"/><path fill="#231504" d="M244 49h12v65h-12z"/><path fill="#373b22" d="M59 59h115v45H59z"/><path d="M249 158l-97-19 98-7z"/><path fill="#95968a" d="M181 110L14 158l61-59z"/></g></svg>