<svg xmlns="http://www.w3.org/2000/svg" viewBox="0 0 1602 1001"><filter id="b"><feGaussianBlur stdDeviation="12" /></filter><path fill="#9b9a99" d="M0 0h1602v994H0z"/><g filter="url(#b)" transform="translate(3.1 3.1) scale(6.25781)" fill-opacity=".5"><ellipse fill="#2a3735" rx="1" ry="1" transform="matrix(132.19844 3.43678 -.95258 36.6417 124.8 71.8)"/><ellipse fill="#faedef" cx="128" cy="137" rx="255" ry="24"/><ellipse fill="#fff" rx="1" ry="1" transform="matrix(241.41002 -5.35957 .28551 12.86033 50.6 10)"/><path fill="#dbe5f6" d="M154.7 77.6l-9.8 21.2-68.2-1.1 34.6-22z"/><ellipse fill="#001224" cx="247" cy="66" rx="149" ry="12"/><ellipse cx="163" cy="102" rx="109" ry="4"/><ellipse fill="#f9d0c6" cx="242" cy="96" rx="26" ry="17"/><path fill="#e6c6c1" d="M0 80h49v51H0z"/><ellipse cx="64" cy="92" rx="14" ry="14"/><path fill="#00000e" d="M-6.2 78.6l.4-20 46 .8-.4 20z"/></g></svg>