<svg xmlns="http://www.w3.org/2000/svg" viewBox="0 0 2850 1902"><filter id="b"><feGaussianBlur stdDeviation="12" /></filter><path fill="#887b78" d="M0 0h2850v1892H0z"/><g filter="url(#b)" transform="translate(5.6 5.6) scale(11.13281)" fill-opacity=".5"><path fill="#fff" d="M-1.5-6h255v60h-255z"/><ellipse rx="1" ry="1" transform="matrix(-2.98123 -47.22596 254.49342 -16.0654 158.7 138.3)"/><ellipse fill="#fff" cx="109" cy="20" rx="255" ry="30"/><ellipse fill="#c66958" cx="151" cy="83" rx="57" ry="43"/><ellipse cx="235" cy="104" rx="40" ry="40"/><ellipse fill="#00100f" cx="12" cy="123" rx="40" ry="69"/><path fill="#3e0000" d="M120.5 64l56 4.6 54.3-4-66.2-25z"/><ellipse fill="#fff" rx="1" ry="1" transform="matrix(85.2508 -7.37696 2.93768 33.94894 84 26.5)"/><ellipse fill="#d0c9d2" rx="1" ry="1" transform="matrix(8.25232 16.91976 -33.78707 16.47906 170.7 92.8)"/><ellipse fill="#fff" cx="110" cy="84" rx="5" ry="55"/></g></svg>