<svg xmlns="http://www.w3.org/2000/svg" viewBox="0 0 4243 2829"><filter id="b"><feGaussianBlur stdDeviation="12" /></filter><path fill="#a0aeb6" d="M0 0h4243v2817H0z"/><g filter="url(#b)" transform="translate(8.3 8.3) scale(16.57422)" fill-opacity=".5"><ellipse rx="1" ry="1" transform="matrix(-56.08782 -23.44864 7.05025 -16.8638 109.3 79.5)"/><ellipse fill="#fff" cx="88" cy="82" rx="31" ry="8"/><path fill="#131009" d="M16.4 70.6l49.9-19.3 53.5-3 4.8 27.3z"/><path fill="#bbcbd6" d="M237 119L-16-16l236 7z"/><path d="M181 103l-67-1 9-31z"/><path fill="#bdcad5" d="M223 148L86 180-2 54z"/><path d="M113 34h6v21h-6z"/><path fill="#c0ced9" d="M31 60.1l-5.7-29.4L91 17.9l5.7 29.4z"/><ellipse fill="#040a0a" rx="1" ry="1" transform="rotate(168.9 26.7 34.4) scale(30.62679 6.85518)"/><path fill="#000401" d="M158 101l2 28 9-4z"/></g></svg>