<svg xmlns="http://www.w3.org/2000/svg" viewBox="0 0 5760 3840"><filter id="b"><feGaussianBlur stdDeviation="12" /></filter><path fill="#2a3840" d="M0 0h5760v3825H0z"/><g filter="url(#b)" transform="matrix(22.5 0 0 22.5 11.3 11.3)" fill-opacity=".5"><ellipse fill="#83adbd" cx="44" cy="71" rx="77" ry="46"/><ellipse fill="#040405" rx="1" ry="1" transform="matrix(-141.14973 212.37173 -56.91376 -37.82689 213.2 117.6)"/><ellipse cy="169" rx="255" ry="35"/><path fill="#6f90a4" d="M4 57l152-42-56 58z"/><ellipse fill="#48585e" cx="71" cy="104" rx="109" ry="16"/><path fill="#303b49" d="M130 141L101 39l114 12z"/><ellipse fill="#0b1a2b" rx="1" ry="1" transform="matrix(-26.61537 27.02146 -107.14355 -105.53335 204.6 17.2)"/><path fill="#5c879b" d="M0 18h28v55H0z"/><ellipse fill="#1f283e" cx="68" cy="14" rx="46" ry="22"/><path fill="#8aabab" d="M85 58h25v28H85z"/></g></svg>