<svg xmlns="http://www.w3.org/2000/svg" viewBox="0 0 6000 4000"><filter id="c"><feGaussianBlur stdDeviation="55" /></filter><path fill="#6b5b3f" d="M0 0h6000v3984H0z"/><g filter='url(#c)' fill-opacity='.5'><ellipse fill-opacity=".5" rx="1" ry="1" transform="matrix(-1587.32258 -342.81064 153.88706 -712.54615 5113.9 533.3)"/><ellipse fill="#ba9e76" fill-opacity=".5" rx="1" ry="1" transform="matrix(-638.49718 -1090.34083 1486.18801 -870.30297 4052.6 2575.8)"/><path fill="#ffefb1" fill-opacity=".5" d="M5589.8 1816.4L2449.2 879 4207 925.8z"/><ellipse fill="#ffe4cf" fill-opacity=".5" rx="1" ry="1" transform="matrix(-30.75399 -201.46334 1016.51277 -155.17376 2759.4 3768.5)"/><ellipse fill="#0d131c" fill-opacity=".5" rx="1" ry="1" transform="rotate(153.3 -25.3 1499) scale(886.37079 805.31845)"/><path fill="#dcdab6" fill-opacity=".5" d="M2355.5 1535.2l-1804.7 164 1828.1 351.6z"/><ellipse fill-opacity=".5" rx="1" ry="1" transform="matrix(49.26246 160.16845 -961.5474 295.7398 2132.7 2815)"/><path fill="#080000" fill-opacity=".5" d="M5191.4 4347.7L4178.7 3171.2l-697.2 831.3L4004 3796z"/><ellipse fill-opacity=".5" rx="1" ry="1" transform="rotate(173.9 260.7 19.7) scale(1140.56902 314.79717)"/><ellipse fill-opacity=".5" rx="1" ry="1" transform="matrix(-831.58821 322.16334 -45.40852 -117.21131 3971.4 1855.8)"/></g></svg>