<svg xmlns="http://www.w3.org/2000/svg" viewBox="0 0 3707 2471"><filter id="b"><feGaussianBlur stdDeviation="12" /></filter><path fill="#6b6758" d="M0 0h3707v2461H0z"/><g filter="url(#b)" transform="translate(7.2 7.2) scale(14.48047)" fill-opacity=".5"><ellipse fill="#e2e5df" cx="255" cy="41" rx="103" ry="34"/><ellipse fill="#d3d9d1" rx="1" ry="1" transform="matrix(123.1292 -4.51382 .71498 19.50345 205.6 147.6)"/><ellipse fill="#210700" rx="1" ry="1" transform="matrix(-43.85085 26.09223 -21.50931 -36.14875 90 95.3)"/><ellipse fill="#edf5f5" cx="21" cy="72" rx="27" ry="27"/><ellipse fill="#391e00" rx="1" ry="1" transform="matrix(5.11263 35.451 -73.97954 10.6691 155.7 98.9)"/><ellipse cx="119" cy="5" rx="82" ry="9"/><ellipse fill="#000302" cx="39" cy="32" rx="87" ry="14"/><ellipse fill="#050000" cx="4" cy="127" rx="58" ry="25"/><ellipse fill="#363122" cx="181" cy="25" rx="50" ry="9"/><ellipse fill="#c2c6bf" rx="1" ry="1" transform="matrix(-8.23857 -14.9859 63.6369 -34.98468 236.8 121.4)"/></g></svg>