<svg xmlns="http://www.w3.org/2000/svg" viewBox="0 0 3594 2446"><filter id="b"><feGaussianBlur stdDeviation="12" /></filter><path fill="#453e2b" d="M0 0h3594v2442H0z"/><g filter="url(#b)" transform="translate(7 7) scale(14.03906)" fill-opacity=".5"><path fill="#d8a571" d="M195 26l-29 117L25 96z"/><ellipse cx="121" cy="13" rx="255" ry="17"/><path fill="#e9c8a1" d="M123.3 6.8L131 45l5.1 80.6 28.3-70.3z"/><ellipse fill="#000405" cx="239" cy="148" rx="68" ry="34"/><ellipse fill="#000f0f" cx="102" cy="64" rx="36" ry="14"/><ellipse fill="#040600" rx="1" ry="1" transform="matrix(-39.87097 18.84692 -6.88756 -14.57074 65.5 128)"/><path fill="#b89776" d="M235 104l-23-42-47 35z"/><path fill="#2a2826" d="M136 116l58-1-6-69z"/><ellipse fill="#091410" rx="1" ry="1" transform="rotate(14.3 -117.2 96.1) scale(29.50403 159.89613)"/><ellipse fill="#c49f76" cx="107" cy="91" rx="87" ry="10"/></g></svg>