<svg xmlns="http://www.w3.org/2000/svg" viewBox="0 0 750 500"><filter id="b"><feGaussianBlur stdDeviation="12" /></filter><path fill="#1f1e19" d="M0 0h750v498H0z"/><g filter="url(#b)" transform="translate(1.5 1.5) scale(2.92969)" fill-opacity=".5"><path fill="#af978d" d="M96 77l48 1-23-19z"/><ellipse fill="#907c71" rx="1" ry="1" transform="matrix(6.55238 25.22294 -1.7917 .46545 176.1 123.8)"/><ellipse fill="#d7c4bd" cx="114" cy="69" rx="7" ry="5"/><path fill="#292821" d="M111.6 81.6L10.9 16.4l184.8 167-72-118.9z"/><path fill="#a89189" d="M87 141h6v11h-6z"/><ellipse fill="#2f3331" rx="1" ry="1" transform="rotate(-126.8 110.7 31) scale(20.77189 26.60761)"/><path fill="#c3aca1" d="M172 109l1.9-.5L178 123l-1.9.6z"/><path fill="#1b1b15" d="M0 0h106v90H0z"/><path fill="#7f6d65" d="M105 60l34 23 1-13z"/><ellipse fill="#171611" rx="1" ry="1" transform="rotate(71.6 .7 134) scale(21.15533 6.2025)"/></g></svg>