<svg xmlns="http://www.w3.org/2000/svg" viewBox="0 0 1502 1001"><filter id="b"><feGaussianBlur stdDeviation="12" /></filter><path fill="#786c62" d="M0 0h1502v997H0z"/><g filter="url(#b)" transform="translate(3 3) scale(5.86719)" fill-opacity=".5"><ellipse fill="#fff3e0" rx="1" ry="1" transform="matrix(-212.09433 9.02549 -1.87622 -44.09023 163.6 26.6)"/><ellipse fill="#0a0e09" cx="142" cy="124" rx="255" ry="55"/><ellipse fill="#f8d5bd" rx="1" ry="1" transform="matrix(-28.3765 -13.1999 11.13374 -23.93474 133 162.8)"/><ellipse fill="#f5e9de" rx="1" ry="1" transform="matrix(154.41332 -6.32557 .66818 16.31096 176 48)"/><ellipse fill="#635365" rx="1" ry="1" transform="matrix(65.64003 -21.13978 5.56445 17.27787 132 0)"/><ellipse fill="#f5a174" rx="1" ry="1" transform="matrix(2.94283 23.62642 -88.64434 11.04124 43 44.1)"/><ellipse fill="#a70f00" cx="130" cy="82" rx="12" ry="23"/><path fill="#0d1913" d="M157 96h99v61h-99z"/><path fill="#81606e" d="M39 27.4l-54-2.8 2-36 54 2.8z"/><path fill="#040f0c" d="M125 103h16v40h-16z"/></g></svg>