<svg xmlns="http://www.w3.org/2000/svg" viewBox="0 0 1650 1100"><filter id="b"><feGaussianBlur stdDeviation="12" /></filter><path fill="#1f4145" d="M0 0h1650v1095H0z"/><g filter="url(#b)" transform="translate(3.2 3.2) scale(6.44531)" fill-opacity=".5"><ellipse fill="#66afbc" cx="102" cy="3" rx="90" ry="90"/><ellipse cx="166" cy="140" rx="255" ry="36"/><path fill="#eaffff" d="M117 21h94v24h-94z"/><path fill="#ffe6cd" d="M186 44h14v71h-14z"/><ellipse fill="#001e1d" cx="85" cy="58" rx="26" ry="40"/><ellipse fill="#74cce7" rx="1" ry="1" transform="rotate(33.4 3.5 110.3) scale(17.58983 71.12823)"/><path fill="#5ff5ff" d="M43.7 92.8l23 .4-.4 20-23-.4z"/><path fill="#25170f" d="M130.6 43l53.9-3.8 2.9 41.9-53.9 3.7z"/><ellipse fill="#2288a6" rx="1" ry="1" transform="matrix(-24.96338 -23.82993 13.19147 -13.81891 210.7 41)"/><ellipse rx="1" ry="1" transform="matrix(2.0374 31.44733 -254.4665 16.48631 182.1 147.2)"/></g></svg>