<svg xmlns="http://www.w3.org/2000/svg" viewBox="0 0 750 937"><filter id="b"><feGaussianBlur stdDeviation="12" /></filter><path fill="#898582" d="M0 0h750v937H0z"/><g filter="url(#b)" transform="translate(1.8 1.8) scale(3.66016)" fill-opacity=".5"><ellipse rx="1" ry="1" transform="matrix(10.83616 95.9389 -63.2356 7.14237 39.6 148)"/><path fill="#fff" d="M244.3 68l-31.9 201.6-98.7-15.7 31.9-201.5z"/><ellipse fill="#fff" rx="1" ry="1" transform="rotate(-99 10.4 11.5) scale(31.9367 57.07832)"/><ellipse rx="1" ry="1" transform="matrix(1.67598 -19.73045 36.92973 3.13696 93.8 9.4)"/><ellipse fill="#140d00" rx="1" ry="1" transform="rotate(122.7 -16.9 79.2) scale(56.50009 82.31519)"/><ellipse fill="#fcfbff" cx="194" cy="200" rx="78" ry="78"/><ellipse fill="#bed6dd" rx="1" ry="1" transform="matrix(-24.85585 6.10518 -11.11626 -45.2573 85.4 239.9)"/><ellipse fill="#310000" rx="1" ry="1" transform="matrix(-14.25065 7.38047 -14.09827 -27.22176 148.1 24.4)"/><path fill="#ffffea" d="M48.2 73.4l23.1-10.2-32.8-15.6L42.7 69z"/><path fill="#f2f6f3" d="M112.6 78.4L97.1 91 47.4 29.6 62.9 17z"/></g></svg>