<svg xmlns="http://www.w3.org/2000/svg" viewBox="0 0 2851 1900"><filter id="b"><feGaussianBlur stdDeviation="12" /></filter><path fill="#091129" d="M0 0h2851v1893H0z"/><g filter="url(#b)" transform="translate(5.6 5.6) scale(11.13672)" fill-opacity=".5"><ellipse fill="#fff" rx="1" ry="1" transform="matrix(21.5449 23.26638 -17.61933 16.31568 125 69.5)"/><ellipse fill="#004fe2" rx="1" ry="1" transform="matrix(212.5075 -1.4836 .16373 23.45225 169.5 180.7)"/><path d="M107 2.6l90.6-65.9L297 73.4l-90.6 65.9z"/><ellipse cx="49" cy="45" rx="53" ry="89"/><path fill="#fffff8" d="M154 63l-49-7 27-15z"/><ellipse fill="#000858" cx="155" cy="139" rx="255" ry="16"/><ellipse cx="130" cy="7" rx="254" ry="36"/><path fill="#b2b1a0" d="M96.1 47.7l32.7 56.9 17.4-4.9 5.1-37.6z"/><ellipse cx="213" cy="55" rx="63" ry="63"/><ellipse rx="1" ry="1" transform="matrix(31.77022 -37.9376 64.24023 53.79694 38.6 67.5)"/></g></svg>