<svg xmlns="http://www.w3.org/2000/svg" viewBox="0 0 2850 1902"><filter id="b"><feGaussianBlur stdDeviation="12" /></filter><path fill="#677480" d="M0 0h2850v1892H0z"/><g filter="url(#b)" transform="translate(5.6 5.6) scale(11.13281)" fill-opacity=".5"><ellipse fill="#f5ffff" rx="1" ry="1" transform="matrix(4.50536 -49.39894 105.61362 9.63234 149.5 20)"/><ellipse fill="#031117" rx="1" ry="1" transform="rotate(106.8 -26.7 54.3) scale(43.7354 87.06177)"/><ellipse fill="#161d1f" rx="1" ry="1" transform="matrix(108.597 -43.216 21.95768 55.17722 229.3 125)"/><ellipse fill="#c7d6e8" rx="1" ry="1" transform="rotate(-24.3 174.7 -257.1) scale(54.82146 29.34793)"/><ellipse fill="#303b47" cx="150" cy="104" rx="221" ry="18"/><ellipse fill="#283d42" rx="1" ry="1" transform="matrix(4.37192 71.36124 -45.1333 2.76507 14.4 114.4)"/><ellipse fill="#8291a9" rx="1" ry="1" transform="matrix(-44.19661 -35.42157 15.07911 -18.81468 57.6 36.6)"/><ellipse fill="#9fc3c1" rx="1" ry="1" transform="matrix(3.30851 8.52985 -33.28527 12.9105 88.3 147.7)"/><ellipse fill="#55757b" rx="1" ry="1" transform="matrix(-79.61991 5.9437 -1.04158 -13.9527 164.3 127.3)"/><ellipse fill="#ccdcef" rx="1" ry="1" transform="matrix(-47.5021 -19.09572 8.96048 -22.2899 160.5 34.5)"/></g></svg>