<svg xmlns="http://www.w3.org/2000/svg" viewBox="0 0 752 1128"><filter id="b"><feGaussianBlur stdDeviation="12" /></filter><path fill="#7c8785" d="M0 0h749v1128H0z"/><g filter="url(#b)" transform="translate(2.2 2.2) scale(4.40625)" fill-opacity=".5"><ellipse fill="#f9fefa" rx="1" ry="1" transform="rotate(54 5.4 145.8) scale(70.37197 41.50574)"/><ellipse fill="#041f25" rx="1" ry="1" transform="matrix(-168.50302 12.95109 -2.1015 -27.34208 93.8 237.3)"/><ellipse fill="#240000" rx="1" ry="1" transform="matrix(-60.75279 -11.91922 3.46734 -17.67319 83.5 122.5)"/><ellipse fill="#280400" rx="1" ry="1" transform="matrix(19.83442 -2.9289 6.26432 42.4219 46.9 12.8)"/><ellipse fill="#fff" cx="17" cy="56" rx="11" ry="23"/><ellipse fill="#9bb7c1" cx="99" cy="172" rx="92" ry="26"/><path d="M184.4-1.1l-7.1 40.4-23.7-4.2 7.1-40.4z"/><ellipse fill="#b5c5cb" cx="83" cy="81" rx="49" ry="22"/><ellipse fill="#7c9498" cx="72" cy="210" rx="36" ry="36"/><ellipse fill="#192e34" cx="5" cy="234" rx="31" ry="45"/></g></svg>