<svg xmlns="http://www.w3.org/2000/svg" viewBox="0 0 1650 1100"><filter id="b"><feGaussianBlur stdDeviation="12" /></filter><path fill="#7a6f62" d="M0 0h1650v1095H0z"/><g filter="url(#b)" transform="translate(3.2 3.2) scale(6.44531)" fill-opacity=".5"><ellipse fill="#ffe8e8" rx="1" ry="1" transform="matrix(-35.1936 1.59254 -1.33403 -29.48072 133.7 25.6)"/><ellipse fill="#c7eff5" cx="218" cy="156" rx="67" ry="16"/><ellipse fill="#382b2e" cx="34" cy="65" rx="71" ry="71"/><ellipse fill="#1b0000" cx="154" cy="120" rx="166" ry="12"/><ellipse fill="#c2b4aa" rx="1" ry="1" transform="matrix(-.27583 -21.99223 105.91119 -1.32837 32 153.9)"/><ellipse fill="#ceceb3" rx="1" ry="1" transform="matrix(12.44132 -30.63927 43.75854 17.7685 234.8 17.4)"/><path fill="#f0a435" d="M156 0h24v104h-24z"/><path fill="#f8b880" d="M44 78h31v31H44z"/><path fill="#2d2c0f" d="M239 49l-49 22 81 24z"/><path fill="#002c43" d="M180 71L76 77l24-25z"/></g></svg>