<svg xmlns="http://www.w3.org/2000/svg" viewBox="0 0 2852 1896"><filter id="b"><feGaussianBlur stdDeviation="12" /></filter><path fill="#2b393c" d="M0 0h2852v1893H0z"/><g filter="url(#b)" transform="translate(5.6 5.6) scale(11.14063)" fill-opacity=".5"><path fill="#97858f" d="M180 103.7l-81-1.4 1-50 81 1.4z"/><ellipse fill="#000f1e" rx="1" ry="1" transform="matrix(199.68353 -38.60425 8.59615 44.46426 106.4 0)"/><ellipse fill="#585f59" rx="1" ry="1" transform="rotate(-105.3 139.5 11.8) scale(97.85075 48.37329)"/><ellipse fill="#0a1d29" cx="21" cy="91" rx="61" ry="124"/><path fill="#001324" d="M152.6 86.6l.6-74.3-24 3.8 1.3 68.2z"/><path fill="#ab959d" d="M157 40h17v61h-17z"/><ellipse fill="#a19298" rx="1" ry="1" transform="matrix(.09497 -3.27566 29.4647 .85424 122 117.5)"/><path fill="#8f7f87" d="M81 30h9v45h-9z"/><ellipse fill="#000b1f" rx="1" ry="1" transform="rotate(153.5 88 47) scale(10.10435 40.86187)"/><path fill="#8b7c80" d="M103 45h21v55h-21z"/></g></svg>