<svg xmlns="http://www.w3.org/2000/svg" viewBox="0 0 1955 1295"><filter id="b"><feGaussianBlur stdDeviation="12" /></filter><path fill="#2c2c2b" d="M0 0h1955v1290H0z"/><g filter="url(#b)" transform="translate(3.8 3.8) scale(7.63672)" fill-opacity=".5"><path fill="#ebf7f1" d="M67 73h33v22H67z"/><path fill="#f1c596" d="M119.4 8l7.9 33 3.6 19.5-48.6-49.9z"/><path fill="#94bbd6" d="M166.6 166.2l-22 1.5-3.2-45.9 22-1.5z"/><path fill="#9b9a83" d="M239.6 156.9l-86.5-7.6-5.2 12.6 29.8 2.3z"/><path fill="#dbddca" d="M114 121h45v5h-45z"/><ellipse fill="#181919" cx="198" cy="42" rx="72" ry="72"/><ellipse fill="#5a5141" rx="1" ry="1" transform="matrix(.47805 30.43126 -19.37726 .3044 106.2 61.7)"/><ellipse fill="#141414" cx="29" cy="69" rx="35" ry="244"/><path fill="#bc9f7a" d="M85.3 20.8L79.5 1.9l40.7 9.6 3.8 20.3z"/><path fill="#aacff9" d="M155.4 156l-4.8 2 5.7-36.3 8.2 6.2z"/></g></svg>