<svg xmlns="http://www.w3.org/2000/svg" viewBox="0 0 2849 1902"><filter id="b"><feGaussianBlur stdDeviation="12" /></filter><path fill="#423830" d="M0 0h2849v1891H0z"/><g filter="url(#b)" transform="translate(5.6 5.6) scale(11.1289)" fill-opacity=".5"><ellipse fill="#91857e" rx="1" ry="1" transform="matrix(-26.17938 69.06386 -42.73737 -16.20005 139.6 134.5)"/><ellipse fill="#020000" rx="1" ry="1" transform="matrix(46.39747 -140.36244 38.40784 12.6959 18.3 35)"/><ellipse fill="#090200" cx="201" rx="43" ry="43"/><ellipse fill="#b69b8c" rx="1" ry="1" transform="matrix(19.11734 20.48734 -13.517 12.6131 106.6 133.2)"/><ellipse cx="236" cy="153" rx="38" ry="21"/><path fill="#93735f" d="M131 102L69 41l86-3z"/><path fill="#000008" d="M144.5 94.4l-12.8 18.7-.8 40.7 24.3-40.3z"/><path fill="#deb49c" d="M184.2 156.2l-29 1.5-1.4-26 29-1.4z"/><ellipse fill="#c6a194" cx="38" cy="138" rx="11" ry="13"/><ellipse fill="#0e0500" rx="1" ry="1" transform="rotate(-163.8 52.1 -2.8) scale(40.61396 15.63716)"/></g></svg>