<svg xmlns="http://www.w3.org/2000/svg" viewBox="0 0 1567 1175"><filter id="b"><feGaussianBlur stdDeviation="12" /></filter><path fill="#343029" d="M0 0h1567v1169H0z"/><g filter="url(#b)" transform="translate(3 3) scale(6.1211)" fill-opacity=".5"><ellipse fill="#c8a5a0" rx="1" ry="1" transform="rotate(6.9 -646 1193.4) scale(31.14326 45.28547)"/><ellipse fill="#a3a0b2" rx="1" ry="1" transform="matrix(57.82197 58.40096 -9.63018 9.5347 185 141.1)"/><ellipse fill="#7a8eae" rx="1" ry="1" transform="matrix(-40.48129 11.30258 -5.56677 -19.93792 144.5 190.2)"/><ellipse fill="#0a0800" rx="1" ry="1" transform="matrix(49.99279 -17.70924 49.31666 139.2198 220.5 48.1)"/><ellipse fill="#121406" cx="38" cy="39" rx="51" ry="231"/><ellipse fill="#2b2012" rx="1" ry="1" transform="rotate(100.8 50.3 110.1) scale(11.58067 32.25428)"/><path fill="#808eac" d="M113.3 151.4L116 206l10-1.5 11-32z"/><path fill="#d5c7c6" d="M113 98h53v13h-53z"/><path fill="#9aa0b2" d="M115 124l-11-1-6 38z"/><ellipse fill="#121205" cx="148" cy="23" rx="25" ry="25"/></g></svg>