<svg xmlns="http://www.w3.org/2000/svg" viewBox="0 0 5466 3644"><filter id="b"><feGaussianBlur stdDeviation="12" /></filter><path fill="#433d33" d="M0 0h5466v3629H0z"/><g filter="url(#b)" transform="translate(10.7 10.7) scale(21.35156)" fill-opacity=".5"><ellipse fill="#fff9d0" rx="1" ry="1" transform="rotate(15.4 34 525.8) scale(100.84498 33.10227)"/><ellipse fill="#121310" cx="61" cy="157" rx="216" ry="130"/><ellipse fill="#fc9" rx="1" ry="1" transform="matrix(36.44316 26.69955 -9.38116 12.80468 189.3 32.3)"/><ellipse fill="#f8d0b9" cx="128" cy="20" rx="61" ry="12"/><path fill="#060804" d="M227 26h29v135h-29z"/><ellipse fill="#5a5b58" rx="1" ry="1" transform="matrix(.35175 13.43269 -89.78997 2.35123 121.7 95)"/><ellipse fill="#858d85" cx="239" cy="5" rx="226" ry="13"/><ellipse fill="#100c04" rx="1" ry="1" transform="matrix(-43.33614 -30.68962 19.66349 -27.76638 22.4 46.3)"/><path fill="#fcb489" d="M228 25L104 8l113 60z"/><path fill="#5e615b" d="M231 165l-111-57 47-2z"/></g></svg>