<svg xmlns="http://www.w3.org/2000/svg" viewBox="0 0 1500 1000"><filter id="c"><feGaussianBlur stdDeviation="55" /></filter><path fill="#2c2c2c" d="M0 0h1500v996H0z"/><g filter='url(#c)' fill-opacity='.5'><ellipse fill="#787878" fill-opacity=".5" rx="1" ry="1" transform="matrix(-157.09422 -38.19451 95.71314 -393.6686 1140.9 248)"/><ellipse fill="#c1c1c1" fill-opacity=".5" rx="1" ry="1" transform="rotate(55.4 -525.6 1201.2) scale(152.48214 83.55451)"/><path fill="#656565" fill-opacity=".5" d="M357.8-143.4l188.9 118L93.3 700-95.5 582z"/><ellipse fill="#020202" fill-opacity=".5" rx="1" ry="1" transform="matrix(-131.04071 -107.62577 375.0678 -456.66713 477.2 567)"/><ellipse fill-opacity=".5" rx="1" ry="1" transform="matrix(155.70461 5.18514 -7.56191 227.07647 978 826.5)"/><ellipse fill-opacity=".5" rx="1" ry="1" transform="matrix(112.31131 12.022 -101.74574 950.52334 1497 601.2)"/><path fill="#b1b1b1" fill-opacity=".5" d="M1433.3-90.8l-237.7 252.5 154.1 272-223.4-524.5z"/><path fill="#cbcbcb" fill-opacity=".5" d="M1081 547.9h82v99.6h-82z"/><ellipse fill-opacity=".5" rx="1" ry="1" transform="matrix(64.67761 100.74574 -259.08481 166.3295 3 123.6)"/><path fill="#1a1a1a" fill-opacity=".5" d="M1110.4-90.8l5.8 468.7 146.5-46.8z"/></g></svg>