<svg xmlns="http://www.w3.org/2000/svg" viewBox="0 0 750 563"><filter id="b"><feGaussianBlur stdDeviation="12" /></filter><path fill="#616162" d="M0 0h750v562H0z"/><g filter="url(#b)" transform="translate(1.5 1.5) scale(2.92969)" fill-opacity=".5"><ellipse fill="#99836d" cx="127" cy="142" rx="73" ry="73"/><ellipse fill="#23241e" rx="1" ry="1" transform="rotate(-157.6 15 26.8) scale(24.93141 62.30582)"/><path fill="#1f151c" d="M148 160l-63-42 23 69z"/><path fill="#000004" d="M217.4 140.5l6.1-19 37.1 12-6.1 19z"/><path fill="#02101c" d="M183.3 25.8l-3.7-17.6 85-18 3.8 17.6z"/><ellipse fill="#598ecc" cx="223" cy="47" rx="18" ry="26"/><ellipse fill="#ffce71" cx="115" cy="127" rx="12" ry="15"/><path fill="#7f9bb0" d="M120 102l73 13-47-71z"/><ellipse fill="#173f74" rx="1" ry="1" transform="rotate(-19.3 521.3 88.6) scale(52.28529 36.53291)"/><ellipse fill="#abc3d2" rx="1" ry="1" transform="matrix(-3.23961 -10.0084 15.17628 -4.9124 73.3 20.7)"/></g></svg>