<svg xmlns="http://www.w3.org/2000/svg" viewBox="0 0 752 501"><filter id="c"><feGaussianBlur stdDeviation="55" /></filter><path fill="#7f6e54" d="M0 0h752v499H0z"/><g filter='url(#c)' fill-opacity='.5'><ellipse fill="#fffa67" fill-opacity=".5" rx="1" ry="1" transform="rotate(87.2 47.2 332.7) scale(165.42665 95.87573)"/><ellipse fill="#290709" fill-opacity=".5" rx="1" ry="1" transform="rotate(-162.5 127.1 120.5) scale(51.76753 215.39132)"/><ellipse fill="#2e2a29" fill-opacity=".5" rx="1" ry="1" transform="matrix(95.76692 67.05672 -87.89458 125.52647 611.7 439.4)"/><ellipse fill="#b6c7c8" fill-opacity=".5" rx="1" ry="1" transform="rotate(-161.8 40.3 47.7) scale(157.29529 44.88515)"/><ellipse fill="#33010e" fill-opacity=".5" rx="1" ry="1" transform="matrix(-19.18549 -61.22096 120.18384 -37.66333 333.8 498)"/><ellipse fill="#e4b392" fill-opacity=".5" rx="1" ry="1" transform="matrix(1.61084 25.60356 -217.75485 13.69997 410.7 38.2)"/><path fill="#f1dad1" fill-opacity=".5" d="M705.1-12.4l88.2-1.6 2.6 152.8-88 1.5z"/><ellipse fill="#eab487" fill-opacity=".5" rx="1" ry="1" transform="matrix(16.93622 17.05487 -146.67752 145.65708 170.8 483.7)"/><path fill="#160500" fill-opacity=".5" d="M473.4 159.5l-52.7-95 48.8-27.2 52.7 95.1z"/><ellipse fill-opacity=".5" rx="1" ry="1" transform="matrix(-104.7808 -1.82792 .29078 -16.66805 62 186)"/></g></svg>