<svg xmlns="http://www.w3.org/2000/svg" viewBox="0 0 752 502"><filter id="b"><feGaussianBlur stdDeviation="12" /></filter><path fill="#464135" d="M0 0h752v499H0z"/><g filter="url(#b)" transform="translate(1.5 1.5) scale(2.9375)" fill-opacity=".5"><ellipse fill="#bf8064" rx="1" ry="1" transform="matrix(-4.39752 -38.38352 84.3926 -9.66868 117.7 120)"/><ellipse fill="#001847" cx="65" cy="26" rx="81" ry="81"/><ellipse fill="#000400" cx="232" cy="39" rx="35" ry="60"/><path fill="#b4abc3" d="M47 75l-63-26 110-1z"/><ellipse fill="#ffc984" cx="185" cy="104" rx="82" ry="7"/><ellipse fill="#82a839" rx="1" ry="1" transform="matrix(-16.46778 21.4251 -13.94871 -10.72128 203.2 54)"/><path fill="#6e3f1e" d="M204 180l-81-60 148-18z"/><path fill="#00000d" d="M149 40L-16-5l56 52z"/><ellipse fill="#001411" rx="1" ry="1" transform="rotate(-102.1 64.2 15.7) scale(11.11692 125.20538)"/><path fill="#a88682" d="M119 62.7L99.4 59l45.6 69.6-57.9-29.8z"/></g></svg>