<svg xmlns="http://www.w3.org/2000/svg" viewBox="0 0 750 501"><filter id="b"><feGaussianBlur stdDeviation="12" /></filter><path fill="#251c12" d="M0 0h750v500H0z"/><g filter="url(#b)" transform="translate(1.5 1.5) scale(2.92969)" fill-opacity=".5"><ellipse fill="#a68a6a" cx="238" cy="131" rx="60" ry="118"/><ellipse cx="134" cy="127" rx="84" ry="38"/><ellipse cx="77" cy="64" rx="112" ry="112"/><path fill="#d5ac76" d="M216 39l34 89-8-130z"/><path fill="#dc9b59" d="M169 184l9-32 93 15z"/><ellipse rx="1" ry="1" transform="matrix(-48.97095 27.31292 -13.86414 -24.85784 185 15.6)"/><path fill="#24211d" d="M209.8 72.4L235 83l-71.5 46.2 1.1-28.5z"/><path fill="#e1bb9a" d="M216 62l-26-3 1 16z"/><path fill="#0f0e08" d="M196 135l11 25 44-12z"/><ellipse fill="#100800" cx="43" cy="105" rx="125" ry="125"/></g></svg>