<svg xmlns="http://www.w3.org/2000/svg" viewBox="0 0 752 602"><filter id="b"><feGaussianBlur stdDeviation="12" /></filter><path fill="#464640" d="M0 0h752v599H0z"/><g filter="url(#b)" transform="translate(1.5 1.5) scale(2.9375)" fill-opacity=".5"><ellipse fill="#fffffd" rx="1" ry="1" transform="matrix(48.54996 20.90891 -41.9677 97.4479 117.3 133)"/><ellipse cx="233" cy="183" rx="86" ry="86"/><ellipse cx="34" cy="55" rx="52" ry="109"/><ellipse rx="1" ry="1" transform="rotate(143.1 106.1 53.7) scale(54.3888 137.32403)"/><ellipse fill="#fff3de" cx="97" cy="177" rx="51" ry="51"/><path d="M109.7 142l16.8 9-12.2 23-16.8-9z"/><ellipse fill="#b4ab9d" cx="131" cy="84" rx="59" ry="51"/><ellipse cx="19" cy="17" rx="33" ry="214"/><ellipse fill="#4c4840" rx="1" ry="1" transform="matrix(20.34516 -4.87498 7.18836 29.99979 125 81.4)"/><ellipse rx="1" ry="1" transform="matrix(160.36896 12.90298 -1.99147 24.75165 193.2 18.7)"/></g></svg>