<svg xmlns="http://www.w3.org/2000/svg" viewBox="0 0 5472 3648"><filter id="b"><feGaussianBlur stdDeviation="12" /></filter><path fill="#463739" d="M0 0h5472v3633H0z"/><g filter="url(#b)" transform="translate(10.7 10.7) scale(21.375)" fill-opacity=".5"><ellipse fill="#b78397" rx="1" ry="1" transform="rotate(86 36.3 72.1) scale(34.731 124.60163)"/><ellipse cx="186" cy="167" rx="217" ry="42"/><ellipse rx="1" ry="1" transform="rotate(-16.9 473.3 -675) scale(38.9278 56.39275)"/><ellipse fill="#ffe9c9" rx="1" ry="1" transform="matrix(-35.02999 16.63012 -3.40158 -7.16514 36 63.6)"/><ellipse fill="#000300" cx="86" cy="86" rx="34" ry="34"/><ellipse fill="#b7a080" rx="1" ry="1" transform="rotate(-51.1 151.2 15) scale(20.21275 27.79228)"/><ellipse cx="180" cy="169" rx="189" ry="33"/><ellipse fill="#ddbd97" cx="149" cy="115" rx="35" ry="6"/><path fill="#e2c2ab" d="M159.8 62l21.4-2.8 18.3-11.7-156-1.1z"/><path fill="#d698b9" d="M237.6-16H111.3l46.6 37.3 6.8.3z"/></g></svg>