<svg xmlns="http://www.w3.org/2000/svg" viewBox="0 0 752 564"><filter id="b"><feGaussianBlur stdDeviation="12" /></filter><path fill="#366568" d="M0 0h752v564H0z"/><g filter="url(#b)" transform="translate(1.5 1.5) scale(2.9375)" fill-opacity=".5"><ellipse fill="#fff" rx="1" ry="1" transform="matrix(-12.14094 -34.47606 62.57435 -22.0359 173.1 99)"/><ellipse fill="#00272f" cx="35" cy="61" rx="91" ry="91"/><ellipse fill="#9d877b" rx="1" ry="1" transform="matrix(-86.5901 34.98467 -16.79173 -41.561 233.5 28.2)"/><ellipse fill="#fff" rx="1" ry="1" transform="matrix(-54.1138 -27.85392 5.0431 -9.79758 159.9 118)"/><ellipse fill="#00393c" cx="34" cy="191" rx="254" ry="54"/><path fill="#081315" d="M164 40h36v41h-36z"/><path fill="#e4f7f8" d="M271 19L150 127l87-43z"/><path fill="#d2dfe0" d="M145.5 144.9l-39-18.2 38-81.6 39 18.2z"/><path fill="#004649" d="M-16 189L30-16l123 219z"/><path fill="#ced2cb" d="M187 25l6 26 55-25z"/></g></svg>