<svg xmlns="http://www.w3.org/2000/svg" viewBox="0 0 1950 1300"><filter id="b"><feGaussianBlur stdDeviation="12" /></filter><path fill="#5b5b61" d="M0 0h1950v1294H0z"/><g filter="url(#b)" transform="translate(3.8 3.8) scale(7.61719)" fill-opacity=".5"><ellipse fill="#f7dedc" rx="1" ry="1" transform="matrix(3.35802 29.38373 -74.9319 8.56334 106.4 24.4)"/><ellipse fill="#feded2" rx="1" ry="1" transform="rotate(-2.4 2658 -2160.9) scale(50.67972 17.06722)"/><ellipse rx="1" ry="1" transform="matrix(2.25867 34.00868 -154.7619 10.27842 112.2 165.7)"/><ellipse fill="#06182d" cx="44" cy="68" rx="255" ry="16"/><path fill="#ffd7b4" d="M-.5 54.4l-11.8-23.1 34.8-17.7 11.8 23.1z"/><ellipse fill="#a6acc8" rx="1" ry="1" transform="matrix(-4.36515 12.70599 -50.29436 -17.27864 226.5 27.6)"/><ellipse fill="#efc2b2" rx="1" ry="1" transform="rotate(123.1 -25 58.3) scale(15.60188 22.18864)"/><ellipse fill="#050c20" cx="30" cy="71" rx="19" ry="33"/><ellipse fill="#243233" rx="1" ry="1" transform="matrix(-84.89932 -40.57129 9.84423 -20.59999 233.7 81.5)"/><ellipse fill="#ccb7b1" cx="100" cy="102" rx="31" ry="19"/></g></svg>