<svg xmlns="http://www.w3.org/2000/svg" viewBox="0 0 4288 2848"><filter id="b"><feGaussianBlur stdDeviation="12" /></filter><path fill="#7d808b" d="M0 0h4288v2847H0z"/><g filter="url(#b)" transform="translate(8.4 8.4) scale(16.75)" fill-opacity=".5"><ellipse fill="#f6ffff" cx="92" cy="23" rx="220" ry="35"/><ellipse fill="#362f2b" cx="95" cy="100" rx="255" ry="40"/><ellipse fill="#151f17" cx="231" cy="87" rx="44" ry="36"/><path fill="#141926" d="M135.3 49.3l46.5 43.4-94-2.7L127 37.7z"/><ellipse fill="#dff6ff" rx="1" ry="1" transform="matrix(3.44836 22.02078 -32.40181 5.07399 175 49.6)"/><ellipse fill="#6e6370" rx="1" ry="1" transform="rotate(101.5 -12.3 109) scale(54.1315 254.99998)"/><path fill="#f7fcff" d="M153 70l93-86 25 48z"/><path fill="#c4b4a8" d="M75 71l-10 35-81-26z"/><ellipse fill="#ffead1" cx="132" cy="101" rx="5" ry="23"/><ellipse fill="#b7d1fb" cx="62" cy="28" rx="64" ry="31"/></g></svg>