<svg xmlns="http://www.w3.org/2000/svg" viewBox="0 0 2850 1900"><filter id="b"><feGaussianBlur stdDeviation="12" /></filter><path fill="#5a5353" d="M0 0h2850v1892H0z"/><g filter="url(#b)" transform="translate(5.6 5.6) scale(11.13281)" fill-opacity=".5"><ellipse fill="#d6b99c" cx="55" cy="71" rx="35" ry="214"/><ellipse fill="#000917" rx="1" ry="1" transform="matrix(17.46528 -36.17975 111.73914 53.94054 199.8 104.7)"/><ellipse fill="#fffff8" rx="1" ry="1" transform="matrix(2.15586 25.39766 -20.45451 1.73626 56.2 87.1)"/><ellipse fill="#292420" rx="1" ry="1" transform="rotate(179.1 19.3 16.7) scale(32.22758 20.26993)"/><ellipse fill="#fff" cx="72" cy="4" rx="19" ry="25"/><ellipse fill="#200c06" cx="77" cy="123" rx="255" ry="10"/><path fill="#000913" d="M182 0h63v40h-63z"/><path fill="#fff" d="M230.4-26.3l15.6-6.6 33.6 79.2-15.6 6.6z"/><ellipse fill="#2e5791" rx="1" ry="1" transform="matrix(53.89892 6.42706 -3.3998 28.5116 203.7 63.4)"/><ellipse fill="#fff" cx="161" cy="4" rx="9" ry="12"/></g></svg>