<svg xmlns="http://www.w3.org/2000/svg" viewBox="0 0 1500 1000"><filter id="b"><feGaussianBlur stdDeviation="12" /></filter><path fill="#68645d" d="M0 0h1500v996H0z"/><g filter="url(#b)" transform="translate(3 3) scale(5.85938)" fill-opacity=".5"><ellipse fill="#f6d8c6" rx="1" ry="1" transform="matrix(-31.22513 -6.91707 17.14286 -77.38652 51.8 33.8)"/><ellipse fill="#000110" cx="183" cy="25" rx="103" ry="36"/><ellipse fill="#bb9483" cx="187" cy="78" rx="108" ry="19"/><ellipse cx="7" cy="23" rx="12" ry="43"/><path fill="#06bc97" d="M165 105l-15 70-49-86z"/><ellipse fill="#3b211d" rx="1" ry="1" transform="matrix(5.7069 3.20396 -36.92493 65.7708 17.4 138.4)"/><ellipse fill="#d2c1b0" rx="1" ry="1" transform="matrix(33.35214 -60.64384 6.94905 3.82175 13.6 90.7)"/><path fill="#1c2a2e" d="M95 0h107v61H95z"/><path fill="#00254d" d="M146 185l-24-49 34 6z"/><ellipse fill="#2f2b37" rx="1" ry="1" transform="matrix(12.61108 4.18317 -16.36966 49.3499 57 151)"/></g></svg>