<svg xmlns="http://www.w3.org/2000/svg" viewBox="0 0 752 501"><filter id="b"><feGaussianBlur stdDeviation="12" /></filter><path fill="#464038" d="M0 0h752v499H0z"/><g filter="url(#b)" transform="translate(1.5 1.5) scale(2.9375)" fill-opacity=".5"><ellipse rx="1" ry="1" transform="matrix(10.46084 -85.1967 55.83503 6.85568 130.2 54.5)"/><ellipse fill="#918679" rx="1" ry="1" transform="rotate(-13.1 525.3 -978) scale(53.01802 87.79577)"/><ellipse fill="#827664" cx="26" cy="84" rx="55" ry="87"/><ellipse rx="1" ry="1" transform="rotate(85.7 44.5 93.6) scale(93.10446 57.42095)"/><ellipse fill="#766e62" rx="1" ry="1" transform="matrix(-2.68467 31.61897 -83.9628 -7.12902 132.7 163)"/><ellipse cx="55" cy="3" rx="33" ry="9"/><ellipse fill="#070501" rx="1" ry="1" transform="matrix(1.85865 -8.05882 34.50156 7.95729 189.8 131.4)"/><ellipse fill="#7d776e" rx="1" ry="1" transform="matrix(-5.12712 -45.8251 30.16702 -3.37522 206.4 83)"/><path d="M79 6h97v125H79z"/><ellipse fill="#857f72" rx="1" ry="1" transform="rotate(17.1 -113.3 55.2) scale(73.97297 21.67683)"/></g></svg>