<svg xmlns="http://www.w3.org/2000/svg" viewBox="0 0 4243 2829"><filter id="b"><feGaussianBlur stdDeviation="12" /></filter><path fill="#747675" d="M0 0h4243v2817H0z"/><g filter="url(#b)" transform="translate(8.3 8.3) scale(16.57422)" fill-opacity=".5"><ellipse fill="#000a13" rx="1" ry="1" transform="matrix(-4.8309 37.1958 -89.42473 -11.61424 18.8 44.4)"/><ellipse fill="#ebf6fc" rx="1" ry="1" transform="matrix(9.62884 -25.89117 78.0117 29.01229 157.5 0)"/><path d="M271 137l-15-46-116 5z"/><path fill="#c4c7c7" d="M225 128l-213-5 121 44z"/><ellipse fill="#d4e5e9" rx="1" ry="1" transform="matrix(2.47148 42.86325 -11.2914 .65106 73.8 15.6)"/><ellipse fill="#d9e0e6" cx="201" cy="83" rx="65" ry="10"/><path d="M87 7h15v74H87zm151 18h12v47h-12z"/><ellipse fill="#080b0c" rx="1" ry="1" transform="matrix(14.37099 17.77358 -29.97358 24.23541 28.5 37.3)"/><ellipse fill="#1d1700" rx="1" ry="1" transform="matrix(45.94542 8.51548 -1.12598 6.07524 17.3 140.6)"/></g></svg>