<svg xmlns="http://www.w3.org/2000/svg" viewBox="0 0 1500 1000"><filter id="b"><feGaussianBlur stdDeviation="12" /></filter><path fill="#8b8174" d="M0 0h1500v996H0z"/><g filter="url(#b)" transform="translate(3 3) scale(5.85938)" fill-opacity=".5"><ellipse rx="1" ry="1" transform="matrix(-38.85537 -72.46496 43.67285 -23.41718 19 112.8)"/><ellipse fill="#fff7ec" rx="1" ry="1" transform="matrix(-35.50884 12.77069 -43.28726 -120.36005 109.5 100)"/><ellipse fill="#030000" rx="1" ry="1" transform="matrix(34.6108 115.72912 -29.35855 8.78018 165.5 27.2)"/><ellipse fill="#ede2c1" rx="1" ry="1" transform="rotate(90.3 75.7 160.2) scale(130.79529 31.01535)"/><ellipse fill="#e2a276" cx="43" cy="10" rx="39" ry="44"/><ellipse fill="#211e15" cx="191" cy="155" rx="12" ry="249"/><ellipse fill="#030000" rx="1" ry="1" transform="matrix(11.21237 -1.71573 4.26207 27.85277 127.6 7.7)"/><path fill="#c8c3c1" d="M76 76h89v81H76z"/><ellipse fill="#1b1c18" rx="1" ry="1" transform="matrix(22.92984 -27.81612 39.86755 32.86427 33.6 148)"/><ellipse fill="#94887f" rx="1" ry="1" transform="rotate(171.8 77.7 82.8) scale(18.33068 50.26571)"/></g></svg>