<svg xmlns="http://www.w3.org/2000/svg" viewBox="0 0 752 501"><filter id="b"><feGaussianBlur stdDeviation="12" /></filter><path fill="#696c68" d="M0 0h752v499H0z"/><g filter="url(#b)" transform="translate(1.5 1.5) scale(2.9375)" fill-opacity=".5"><ellipse fill="#f9fffe" cx="129" cy="52" rx="115" ry="10"/><ellipse fill="#cccecd" rx="1" ry="1" transform="matrix(79.0195 -1.52087 .69668 36.1972 122 0)"/><ellipse fill="#373936" cx="40" cy="158" rx="95" ry="95"/><ellipse fill="#201c1d" rx="1" ry="1" transform="matrix(-30.24227 -11.99449 15.0327 -37.90268 239.8 100.4)"/><path fill="#fff1e3" d="M181 81h23v38h-23z"/><ellipse fill="#9faca1" rx="1" ry="1" transform="matrix(74.59023 -14.22885 1.9839 10.39999 121.8 134.1)"/><ellipse fill="#303232" cx="148" cy="164" rx="124" ry="15"/><ellipse fill="#2d312e" rx="1" ry="1" transform="rotate(93.1 26.5 119.3) scale(19.45446 36.03706)"/><ellipse fill="#a3a69f" rx="1" ry="1" transform="matrix(1.48556 -11.27459 38.6161 5.08813 41.8 53.1)"/><path fill="#a49c99" d="M0 107h51v12H0z"/></g></svg>