<svg xmlns="http://www.w3.org/2000/svg" viewBox="0 0 1000 1497"><filter id="b"><feGaussianBlur stdDeviation="12" /></filter><path fill="#474240" d="M0 0h999v1497H0z"/><g filter="url(#b)" transform="translate(3 3) scale(5.84766)" fill-opacity=".5"><ellipse fill="#fff" rx="1" ry="1" transform="matrix(-.95587 39.11175 -75.05359 -1.83427 86.8 93.9)"/><path fill="#020000" d="M168 271l-184-25 202-129z"/><path d="M33.6-19.2L193.7-2.4l-7.3 69.6L26.3 50.4z"/><ellipse fill="#fbdec4" cx="120" cy="109" rx="38" ry="38"/><ellipse cx="69" cy="121" rx="37" ry="9"/><ellipse fill="#140c0b" rx="1" ry="1" transform="matrix(128.9232 110.80978 -29.82676 34.70236 27.7 193.3)"/><path fill="#e2e8ec" d="M11 87h135v25H11z"/><ellipse fill="#de5900" rx="1" ry="1" transform="matrix(-21.2886 11.20533 -9.58975 -18.2192 9.8 14.3)"/><path fill="#bc9771" d="M46 133l49 19 61-40z"/><ellipse fill="#000003" rx="1" ry="1" transform="matrix(7.5676 14.96125 -93.1259 47.10428 36.7 40.8)"/></g></svg>