<svg xmlns="http://www.w3.org/2000/svg" viewBox="0 0 752 572"><filter id="b"><feGaussianBlur stdDeviation="12" /></filter><path fill="#7d7b78" d="M0 0h752v569H0z"/><g filter="url(#b)" transform="translate(1.5 1.5) scale(2.9375)" fill-opacity=".5"><ellipse fill="#fff" rx="1" ry="1" transform="matrix(151.61043 39.53532 -23.3983 89.72806 159 14)"/><ellipse rx="1" ry="1" transform="matrix(9.96378 -54.9403 248.11832 44.99787 113.8 163.6)"/><ellipse fill="#ffedc6" rx="1" ry="1" transform="matrix(-1.68673 19.57086 -52.72658 -4.54429 130.8 113.2)"/><ellipse cx="26" cy="97" rx="46" ry="46"/><ellipse fill="#040706" cx="218" cy="144" rx="38" ry="68"/><ellipse fill="#fff" cx="163" cy="33" rx="154" ry="37"/><ellipse fill="#050808" cx="71" cy="193" rx="222" ry="56"/><path fill="#fffaf7" d="M154 12h41v106h-41z"/><ellipse fill="#130f00" rx="1" ry="1" transform="matrix(5.15688 -.53653 4.58145 44.03519 205.3 96.9)"/><path fill="#ddd5cd" d="M216 58h40v55h-40z"/></g></svg>