<svg xmlns="http://www.w3.org/2000/svg" viewBox="0 0 1650 1100"><filter id="b"><feGaussianBlur stdDeviation="12" /></filter><path fill="#28262a" d="M0 0h1650v1095H0z"/><g filter="url(#b)" transform="translate(3.2 3.2) scale(6.44531)" fill-opacity=".5"><ellipse fill="#384454" rx="1" ry="1" transform="matrix(1.07 -34.54415 108.12133 3.34906 52.1 169)"/><ellipse fill="#50252e" cx="69" cy="83" rx="39" ry="49"/><ellipse fill="#181f20" rx="1" ry="1" transform="matrix(-53.45297 28.50986 -86.58636 -162.34026 212.6 47.1)"/><ellipse fill="#561819" rx="1" ry="1" transform="rotate(-144.2 14.4 9.1) scale(51.03646 13.47676)"/><path fill="#053b40" d="M106 101.7L61.3 81l47.8-.7 31.2-4.1z"/><ellipse fill="#6a4559" cx="22" cy="169" rx="20" ry="18"/><path fill="#533836" d="M126 116l25-40-113 54z"/><path fill="#141612" d="M26 20h86v17H26z"/><ellipse fill="#1f393b" rx="1" ry="1" transform="matrix(-3.52937 -15.91994 64.58426 -14.31798 150.3 153)"/><path fill="#7d0b29" d="M27.9 42.5l.2-7 58 2-.2 7z"/></g></svg>