<svg xmlns="http://www.w3.org/2000/svg" viewBox="0 0 750 500"><filter id="b"><feGaussianBlur stdDeviation="12" /></filter><path fill="#7c4e40" d="M0 0h750v498H0z"/><g filter="url(#b)" transform="translate(1.5 1.5) scale(2.92969)" fill-opacity=".5"><ellipse fill="#ff9c6c" cx="65" cy="64" rx="169" ry="34"/><ellipse fill="#000b16" cx="205" cy="157" rx="160" ry="29"/><ellipse fill="#e30064" rx="1" ry="1" transform="matrix(17.13229 -3.46967 10.61509 52.41449 214.6 50.3)"/><path fill="#aad2c5" d="M-13.3 22l60.8 5.3L41.3 98l-60.8-5.3z"/><ellipse fill="#f3d192" rx="1" ry="1" transform="matrix(9.79887 -20.22667 35.47126 17.18415 152.5 52.8)"/><ellipse fill="#ac003d" rx="1" ry="1" transform="matrix(.74915 -40.21818 14.43317 .26885 57.9 59.7)"/><ellipse fill="#110f13" rx="1" ry="1" transform="rotate(-44 253.6 -239.8) scale(51.2398 20.16219)"/><ellipse fill="#f67600" cx="144" cy="84" rx="73" ry="14"/><ellipse fill="#000c06" rx="1" ry="1" transform="rotate(89.6 13 127.2) scale(15.23403 31.97685)"/><path fill="#000b0e" d="M191.6 55.2L172 23.8l-.7-39.8 45.2 70z"/></g></svg>