<svg xmlns="http://www.w3.org/2000/svg" viewBox="0 0 752 573"><filter id="b"><feGaussianBlur stdDeviation="12" /></filter><path fill="#5b626e" d="M0 0h752v572H0z"/><g filter="url(#b)" transform="translate(1.5 1.5) scale(2.9375)" fill-opacity=".5"><ellipse fill="#fff7e7" cx="130" cy="109" rx="46" ry="46"/><ellipse fill="#000006" cx="31" cy="71" rx="61" ry="61"/><ellipse rx="1" ry="1" transform="rotate(63.4 51.4 244) scale(35.32497 64.03675)"/><ellipse fill="#e9e2e2" rx="1" ry="1" transform="matrix(-.63143 12.7005 -78.62003 -3.90873 224.6 143.8)"/><ellipse fill="#a4bbd9" rx="1" ry="1" transform="matrix(-13.50448 34.79904 -46.06427 -17.87618 191.6 0)"/><ellipse fill="#e3e0e5" cx="52" cy="142" rx="55" ry="13"/><ellipse fill="#fffcea" rx="1" ry="1" transform="rotate(106 41.2 102.2) scale(11.57502 25.49551)"/><ellipse fill="#354253" cx="83" cy="42" rx="64" ry="29"/><path fill="#13171b" d="M0 82h85v49H0z"/><ellipse fill="#6b768d" cx="97" cy="153" rx="160" ry="11"/></g></svg>