<svg xmlns="http://www.w3.org/2000/svg" viewBox="0 0 750 507"><filter id="c"><feGaussianBlur stdDeviation="55" /></filter><path fill="#796246" d="M0 0h750v506H0z"/><g filter='url(#c)' fill-opacity='.5'><ellipse fill="#000f0d" fill-opacity=".5" rx="1" ry="1" transform="matrix(30.03572 88.91165 -178.79194 60.39866 241.3 78.5)"/><ellipse fill="#001700" fill-opacity=".5" rx="1" ry="1" transform="rotate(135.9 358.4 190.7) scale(135.17138 70.24775)"/><ellipse fill="#caffff" fill-opacity=".5" rx="1" ry="1" transform="matrix(-.42096 -30.80896 61.11325 -.83503 49 48.3)"/><ellipse fill="#b87f50" fill-opacity=".5" rx="1" ry="1" transform="rotate(71.1 -134.8 367.7) scale(199.17516 279.4919)"/><ellipse fill="#000034" fill-opacity=".5" rx="1" ry="1" transform="matrix(-38.09893 20.63226 -43.79599 -80.8724 529.8 215.4)"/><ellipse fill="#ec9467" fill-opacity=".5" rx="1" ry="1" transform="matrix(-1.74999 -143.23116 65.946 -.80572 692.5 435.1)"/><ellipse fill="#f4ffff" fill-opacity=".5" rx="1" ry="1" transform="rotate(80.7 338.9 400.5) scale(13.57882 81.14465)"/><ellipse fill="#21537a" fill-opacity=".5" rx="1" ry="1" transform="rotate(173.5 273.9 202.2) scale(43.80017 125.21748)"/><path fill="#405428" fill-opacity=".5" d="M779.3 159.5l-56.4 145.8-122.5-128.9L484.6-45.4z"/><path fill="#000c1d" fill-opacity=".5" d="M63 74.7h295.9v87.9h-296z"/></g></svg>