<svg xmlns="http://www.w3.org/2000/svg" viewBox="0 0 1782 1001"><filter id="b"><feGaussianBlur stdDeviation="12" /></filter><path fill="#575c58" d="M0 0h1782v995H0z"/><g filter="url(#b)" transform="translate(3.5 3.5) scale(6.96094)" fill-opacity=".5"><ellipse rx="1" ry="1" transform="matrix(-37.11416 207.00768 -71.63038 -12.84252 238.6 79)"/><ellipse fill="#c4c1b2" rx="1" ry="1" transform="matrix(-15.8562 152.48911 -53.93694 -5.6085 114.1 42.4)"/><path fill="#200e00" d="M114.6 150l9.8-140.7 11 .8-9.8 140.6z"/><ellipse fill="#000508" rx="1" ry="1" transform="matrix(57.39214 10.2231 -36.78404 206.50444 229.2 81.6)"/><ellipse fill="#f5f1e8" rx="1" ry="1" transform="rotate(-85.1 118.1 -27.7) scale(73.50954 4.09458)"/><path fill="#e3e0d5" d="M117 31.6l6 18-11 90.4-12.6 9.7z"/><ellipse fill="#6b7471" cy="47" rx="78" ry="135"/><path fill="#3b3325" d="M121 0h11v105h-11z"/><ellipse fill="#babbb1" cx="138" cy="9" rx="7" ry="37"/><path fill="#f9f7ee" d="M119.2 158l14.3-24.3 5-89.8-8 68.7z"/></g></svg>