<svg xmlns="http://www.w3.org/2000/svg" viewBox="0 0 1867 1400"><filter id="b"><feGaussianBlur stdDeviation="12" /></filter><path fill="#314444" d="M0 0h1867v1392H0z"/><g filter="url(#b)" transform="translate(3.6 3.6) scale(7.29297)" fill-opacity=".5"><ellipse fill="#f4ffff" rx="1" ry="1" transform="matrix(67.50585 16.1522 -14.26192 59.60568 24.2 37.2)"/><ellipse fill="#020702" cx="201" cy="134" rx="83" ry="243"/><ellipse fill="#d5feff" rx="1" ry="1" transform="matrix(-19.9055 -59.30906 32.1736 -10.79821 19.9 9.2)"/><path fill="#00090c" d="M154 186.8l-59 70.5-105-88 59-70.6z"/><ellipse fill="#486e59" rx="1" ry="1" transform="matrix(-51.71851 -21.45189 10.66312 -25.7078 123.3 104.2)"/><ellipse fill="#467d8f" rx="1" ry="1" transform="matrix(9.30741 -52.36487 22.65272 4.02633 93.6 22.6)"/><path fill="#58848f" d="M12 149l45-68-73-4z"/><ellipse fill="#7b927d" rx="1" ry="1" transform="rotate(127.8 83.4 90.9) scale(6.17642 29.69598)"/><ellipse fill="#040305" rx="1" ry="1" transform="matrix(76.46932 3.07133 -1.29408 32.21966 208.3 164.2)"/><path fill="#0e1006" d="M48.1 101l4.4-24.8 29 63.6-54.4-20.3z"/></g></svg>