<svg xmlns="http://www.w3.org/2000/svg" viewBox="0 0 2850 1902"><filter id="b"><feGaussianBlur stdDeviation="12" /></filter><path fill="#4f4f4f" d="M0 0h2850v1892H0z"/><g filter="url(#b)" transform="translate(5.6 5.6) scale(11.13281)" fill-opacity=".5"><ellipse fill="#838383" cx="135" cy="91" rx="242" ry="34"/><ellipse fill="#1e1e1e" rx="1" ry="1" transform="matrix(-189.53263 -4.95625 1.00918 -38.59219 117.6 20.6)"/><ellipse fill="#fff" cx="109" cy="106" rx="13" ry="13"/><ellipse fill="#0e0e0e" rx="1" ry="1" transform="matrix(3.9443 33.5187 -14.2752 1.67983 142.5 102.8)"/><ellipse fill="#333" rx="1" ry="1" transform="matrix(-70.8586 -201.21389 23.03616 -8.11231 13.7 147.3)"/><ellipse fill="#7c7c7c" cx="193" cy="134" rx="41" ry="15"/><path fill="#747474" d="M24 60h77v82H24z"/><path fill="#222" d="M255.8 175L.9 184l-.7-21 254.9-9z"/><ellipse fill="#636363" rx="1" ry="1" transform="matrix(-4.11773 -12.41014 21.11815 -7.00709 108.7 36.5)"/><ellipse fill="#7f7f7f" rx="1" ry="1" transform="matrix(45.72947 16.7346 -6.8695 18.7718 182.7 82.6)"/></g></svg>