<svg xmlns="http://www.w3.org/2000/svg" viewBox="0 0 1650 1100"><filter id="b"><feGaussianBlur stdDeviation="12" /></filter><path fill="#a7b0b4" d="M0 0h1650v1095H0z"/><g filter="url(#b)" transform="translate(3.2 3.2) scale(6.44531)" fill-opacity=".5"><ellipse rx="1" ry="1" transform="matrix(-95.08842 -6.64923 2.21086 -31.61672 168.5 169)"/><ellipse fill="#fff" rx="1" ry="1" transform="matrix(8.0309 61.83448 -140.42062 18.23745 115 6.6)"/><path fill="#2a3a41" d="M50.5 121.5l11.8-55.8 79.2 16.8-11.8 55.8z"/><ellipse fill="#fff" cx="93" cy="10" rx="147" ry="49"/><path fill="#0e181c" d="M9 154h239v16H9z"/><path fill="#fff" d="M67 149l-31 27 69-33z"/><ellipse fill="#1b2429" rx="1" ry="1" transform="matrix(6.617 -8.95315 43.18351 31.9156 118.3 129.4)"/><ellipse fill="#d9e5e4" cx="229" cy="123" rx="45" ry="27"/><path fill="#00060b" d="M-4.3 63l25.2 31-8.6 7-25.2-31z"/><path fill="#a9b9c0" d="M67.4 100.6L30.7 167 65 52.4l79 3.2z"/></g></svg>