<svg xmlns="http://www.w3.org/2000/svg" viewBox="0 0 1642 1107"><filter id="b"><feGaussianBlur stdDeviation="12" /></filter><path fill="#686564" d="M0 0h1642v1103H0z"/><g filter="url(#b)" transform="translate(3.2 3.2) scale(6.41406)" fill-opacity=".5"><ellipse fill="#eafffe" rx="1" ry="1" transform="rotate(92.4 59 64.2) scale(41.83969 106.27672)"/><ellipse fill="#302320" cx="206" cy="123" rx="78" ry="66"/><path fill="#030c25" d="M68-9L57 180l63 7z"/><ellipse cx="146" cy="104" rx="18" ry="33"/><ellipse fill="#ff946a" rx="1" ry="1" transform="matrix(1.23914 51.6697 -11.71021 .28083 125.2 155.6)"/><ellipse fill="#e7cacb" cx="56" cy="114" rx="17" ry="16"/><path fill="#dde9ed" d="M178 133L136 5l36 12z"/><path fill="#9cd3e6" d="M32 15h186v30H32z"/><ellipse rx="1" ry="1" transform="matrix(-10.48286 -1.17828 5.46598 -48.62927 193.2 124.6)"/><path fill="#462711" d="M1 0h28v75H1z"/></g></svg>