<svg xmlns="http://www.w3.org/2000/svg" viewBox="0 0 1951 1301"><filter id="b"><feGaussianBlur stdDeviation="12" /></filter><path fill="#263a4e" d="M0 0h1951v1295H0z"/><g filter="url(#b)" transform="translate(3.8 3.8) scale(7.6211)" fill-opacity=".5"><path fill="#f0d6bb" d="M271 176l-287-8 171-41z"/><ellipse fill="#000431" rx="1" ry="1" transform="rotate(112 67.2 45.3) scale(55.06628 233.10143)"/><ellipse fill="#dae5f5" rx="1" ry="1" transform="rotate(167.6 43 31.6) scale(10.39581 12.80097)"/><ellipse fill="#1c0000" rx="1" ry="1" transform="matrix(-.13962 20.67981 -56.9358 -.38441 237.9 134)"/><ellipse fill="#003270" cx="30" cy="50" rx="44" ry="44"/><ellipse fill="#176f9f" cx="111" cy="84" rx="24" ry="35"/><ellipse fill="#251109" cx="33" cy="124" rx="89" ry="19"/><path fill="#a9a199" d="M138 185L23 147l101-13z"/><ellipse fill="#00183a" cx="177" cy="12" rx="79" ry="79"/><ellipse fill="#3b2b1e" rx="1" ry="1" transform="matrix(1.27093 8.28679 -91.01491 13.95884 155.5 122.8)"/></g></svg>