<svg xmlns="http://www.w3.org/2000/svg" viewBox="0 0 2089 1175"><filter id="b"><feGaussianBlur stdDeviation="12" /></filter><path fill="#323e48" d="M0 0h2089v1166H0z"/><g filter="url(#b)" transform="translate(4 4) scale(8.16016)" fill-opacity=".5"><ellipse fill="#e9ffff" rx="1" ry="1" transform="rotate(53.3 63 181.4) scale(50.68118 57.68133)"/><ellipse rx="1" ry="1" transform="matrix(60.2246 161.07802 -54.70626 20.45383 37.4 79)"/><ellipse fill="#f8ffff" rx="1" ry="1" transform="matrix(28.53882 14.16853 -11.48314 23.12979 162.3 30.4)"/><ellipse cx="135" cy="122" rx="255" ry="32"/><ellipse fill="#45729c" rx="1" ry="1" transform="rotate(-165.2 111.7 6) scale(22.35377 47.82599)"/><path fill="#4f6e7f" d="M97 152l42-88-26-43z"/><path fill="#04141b" d="M202.5 76.3l-13.4 20-21.6-14.6 13.4-20z"/><ellipse fill="#feffff" rx="1" ry="1" transform="rotate(130.1 74.4 55.8) scale(15.66419 22.26646)"/><ellipse fill="#000307" rx="1" ry="1" transform="matrix(27.62968 -5.52096 28.96753 144.96832 17.4 95.9)"/><path fill="#4c779d" d="M186 77l-72-32 3 29z"/></g></svg>