<svg xmlns="http://www.w3.org/2000/svg" viewBox="0 0 2978 1675"><filter id="b"><feGaussianBlur stdDeviation="12" /></filter><path fill="#607074" d="M0 0h2978v1663H0z"/><g filter="url(#b)" transform="translate(5.8 5.8) scale(11.63281)" fill-opacity=".5"><ellipse fill="#a2dbff" rx="1" ry="1" transform="matrix(1.84036 33.34038 -152.90316 8.44014 161 20.4)"/><ellipse fill="#080900" rx="1" ry="1" transform="matrix(71.71115 -38.86294 30.6183 56.49789 196 126.6)"/><ellipse fill="#302900" rx="1" ry="1" transform="rotate(-105.1 36.6 47.7) scale(205.04393 32.93998)"/><ellipse fill="#b2cbfd" rx="1" ry="1" transform="matrix(22.45983 22.69627 -21.83716 21.60967 45.1 27.4)"/><ellipse fill="#746637" cx="88" cy="106" rx="62" ry="59"/><ellipse fill="#78a3f5" rx="1" ry="1" transform="rotate(94.3 103.5 121.2) scale(24.20738 212.86454)"/><ellipse fill="#d1b081" rx="1" ry="1" transform="matrix(6.01595 -8.25334 43.05486 31.38316 70.4 123.1)"/><ellipse fill="#cef5fe" rx="1" ry="1" transform="matrix(-1.00451 8.5056 -49.48795 -5.84453 224.4 40.5)"/><path fill="#3b4b57" d="M147 46h71v41h-71z"/><path fill="#282f0f" d="M108.2 70.6l1.5 63.8-26.4-13.9 15-56.7z"/></g></svg>