<svg xmlns="http://www.w3.org/2000/svg" viewBox="0 0 1648 1102"><filter id="b"><feGaussianBlur stdDeviation="12" /></filter><path fill="#544432" d="M0 0h1648v1100H0z"/><g filter="url(#b)" transform="translate(3.2 3.2) scale(6.4375)" fill-opacity=".5"><path fill="#f9d6b5" d="M245 103L117 15 97 155z"/><ellipse rx="1" ry="1" transform="rotate(-11.8 378.6 -42.8) scale(42.40688 220.27095)"/><ellipse rx="1" ry="1" transform="rotate(-55.5 118.1 -218.3) scale(55.72037 164.76173)"/><path fill="#d8bda0" d="M232 114L123 5l48 148z"/><ellipse fill="#301404" rx="1" ry="1" transform="matrix(18.5223 1.92597 -2.6414 25.40277 131.3 91.7)"/><ellipse cx="255" cy="104" rx="28" ry="255"/><ellipse fill="#e8b583" cx="80" cy="76" rx="10" ry="42"/><path fill="#1f0000" d="M181.1 127.6l-17.5 3.6 6.4-49.7 9 4.7z"/><ellipse fill="#060000" rx="1" ry="1" transform="matrix(77.33888 31.09003 -5.41997 13.4826 214.8 170.5)"/><ellipse fill="#fff" cx="193" cy="110" rx="15" ry="15"/></g></svg>