<svg xmlns="http://www.w3.org/2000/svg" viewBox="0 0 2849 1902"><filter id="b"><feGaussianBlur stdDeviation="12" /></filter><path fill="#15464b" d="M0 0h2849v1891H0z"/><g filter="url(#b)" transform="translate(5.6 5.6) scale(11.1289)" fill-opacity=".5"><ellipse fill="#ffc6a9" rx="1" ry="1" transform="matrix(-4.56653 13.88917 -58.52641 -19.2425 135.4 97.2)"/><ellipse fill="#f09966" rx="1" ry="1" transform="matrix(3.88868 -10.50378 58.87777 21.79755 224.6 132.3)"/><path fill="#f7c5ab" d="M92 71h43v34H92z"/><ellipse fill="#001e2a" cx="11" cy="69" rx="75" ry="75"/><path fill="#007377" d="M98.8 159.4l13-56.5 59.4 13.7-13 56.5z"/><ellipse fill="#002733" rx="1" ry="1" transform="matrix(-20.29418 67.60324 -50.11991 -15.04576 234.6 51)"/><ellipse fill="#005662" cx="170" cy="49" rx="25" ry="53"/><ellipse fill="#001021" rx="1" ry="1" transform="rotate(-147 48.3 22.6) scale(29.91694 3.75699)"/><ellipse fill="#001f28" rx="1" ry="1" transform="rotate(-171.7 75 50.6) scale(22.93597 4.19788)"/><path fill="#020000" d="M133 84h10v14h-10z"/></g></svg>