<svg xmlns="http://www.w3.org/2000/svg" viewBox="0 0 1650 1100"><filter id="b"><feGaussianBlur stdDeviation="12" /></filter><path fill="#7b7b7b" d="M0 0h1650v1095H0z"/><g filter="url(#b)" transform="translate(3.2 3.2) scale(6.44531)" fill-opacity=".5"><ellipse fill="#fff" rx="1" ry="1" transform="rotate(-110.6 67.3 -46.6) scale(43.59581 48.61187)"/><ellipse fill="#101010" rx="1" ry="1" transform="matrix(27.58329 29.20995 -64.3047 60.72365 232 24.7)"/><ellipse fill="#fff" rx="1" ry="1" transform="matrix(-13.22798 23.70048 -34.216 -19.097 49.2 108.2)"/><ellipse rx="1" ry="1" transform="matrix(-54.32942 -44.63033 20.50702 -24.96361 26.6 162.6)"/><ellipse fill="#1a1a1a" rx="1" ry="1" transform="matrix(-80.35564 19.54984 -11.9498 -49.1172 233.5 155.7)"/><ellipse fill="#c8c8c8" rx="1" ry="1" transform="matrix(45.56544 111.97021 -16.73152 6.80876 103.2 77.3)"/><path fill="#050505" d="M72.5 169.9l16.8-66.7 21.2 60.9H90.8z"/><ellipse fill="#f6f6f6" cx="128" cy="10" rx="25" ry="47"/><ellipse fill="#e3e3e3" cx="129" cy="138" rx="11" ry="67"/><path fill="#dcdcdc" d="M74 72l-90 20 92 65z"/></g></svg>