<svg xmlns="http://www.w3.org/2000/svg" viewBox="0 0 1650 1100"><filter id="b"><feGaussianBlur stdDeviation="12" /></filter><path fill="#b3b3b0" d="M0 0h1650v1095H0z"/><g filter="url(#b)" transform="translate(3.2 3.2) scale(6.44531)" fill-opacity=".5"><ellipse fill="#3c3a30" cx="255" cy="57" rx="225" ry="45"/><ellipse fill="#fff" rx="1" ry="1" transform="matrix(-.44612 40.31492 -254.98439 -2.82164 155.9 142)"/><ellipse fill="#413e35" rx="1" ry="1" transform="rotate(35.8 65.6 203.1) scale(40.35653 29.43697)"/><ellipse fill="#fff" cx="23" rx="17" ry="64"/><ellipse fill="#3a2c25" cx="246" cy="59" rx="43" ry="43"/><path fill="#fff" d="M45.1 172l-1.2-67 169-3 1.2 67z"/><ellipse fill="#323025" rx="1" ry="1" transform="rotate(-9.8 417.2 35.8) scale(17.80174 34.64715)"/><ellipse fill="#1f1a0f" rx="1" ry="1" transform="matrix(1.82972 -30.71225 9.48013 .56479 54.6 10)"/><ellipse fill="#979d95" rx="1" ry="1" transform="matrix(-54.79353 -31.25368 16.21483 -28.42763 89.1 63.6)"/><ellipse fill="#fff" rx="1" ry="1" transform="rotate(147.9 96.2 31.5) scale(17.17592 17.85979)"/></g></svg>