<svg xmlns="http://www.w3.org/2000/svg" viewBox="0 0 1650 1100"><filter id="b"><feGaussianBlur stdDeviation="12" /></filter><path fill="#39403d" d="M0 0h1650v1095H0z"/><g filter="url(#b)" transform="translate(3.2 3.2) scale(6.44531)" fill-opacity=".5"><path fill="#d9c8c3" d="M106.7-58.3L219.9-8l-36.6 82.2L70.1 24z"/><ellipse fill="#000703" rx="1" ry="1" transform="matrix(4.18332 -46.87323 238.06245 21.2465 72.8 140.6)"/><ellipse fill="#9f9e9c" rx="1" ry="1" transform="rotate(127.3 32.4 55.6) scale(42.83982 20.50576)"/><ellipse fill="#000f0c" cx="19" cy="95" rx="31" ry="119"/><ellipse fill="#77706e" rx="1" ry="1" transform="rotate(40.4 7.7 285.3) scale(65.42633 27.00571)"/><ellipse fill="#dccdc6" rx="1" ry="1" transform="matrix(48.32166 2.0559 -.73442 17.26175 148 9.4)"/><path fill="#0a130e" d="M122.5 78.2l50.7 26.6-28-59.2-15-13.5z"/><ellipse fill="#656968" rx="1" ry="1" transform="matrix(-2.09641 -36.3584 21.16228 -1.2202 75 30.1)"/><ellipse fill="#01161b" cx="255" cy="16" rx="27" ry="61"/><ellipse fill="#4f524b" cx="163" cy="135" rx="72" ry="8"/></g></svg>