<svg xmlns="http://www.w3.org/2000/svg" viewBox="0 0 2700 1800"><filter id="b"><feGaussianBlur stdDeviation="12" /></filter><path fill="#ab766b" d="M0 0h2700v1792H0z"/><g filter="url(#b)" transform="translate(5.3 5.3) scale(10.54688)" fill-opacity=".5"><ellipse rx="1" ry="1" transform="matrix(-6.27974 19.91679 -63.34608 -19.97294 20.1 109.3)"/><ellipse fill="#dffae2" rx="1" ry="1" transform="rotate(14.7 -40 649.3) scale(37.3039 103.48117)"/><ellipse fill="#ff1f2b" rx="1" ry="1" transform="matrix(-44.92536 -12.07316 32.38232 -120.49759 229.1 87.7)"/><ellipse fill="#204f54" rx="1" ry="1" transform="matrix(11.13651 -20.23549 65.45274 36.02163 164.6 169)"/><path fill="#dff" d="M104.7 128l-16.8 57-27.6-14.6L62 147z"/><ellipse fill="#406f6f" rx="1" ry="1" transform="matrix(-39.01744 -12.22732 7.1955 -22.96084 25.4 145)"/><ellipse fill="#909472" cx="89" cy="55" rx="60" ry="60"/><path fill="#d9ffff" d="M202.2 182.5l-20.2-8.6 7.8-18.4 20.2 8.6z"/><path fill="#fff" d="M214-5.1L196-16l-47.3 159.8 28.7-47.7z"/><path fill="#4e4b39" d="M-16-16L74 4 18 34z"/></g></svg>