<svg xmlns="http://www.w3.org/2000/svg" viewBox="0 0 2862 1878"><filter id="b"><feGaussianBlur stdDeviation="12" /></filter><path fill="#70777a" d="M0 0h2862v1867H0z"/><g filter="url(#b)" transform="translate(5.6 5.6) scale(11.17969)" fill-opacity=".5"><ellipse fill="#fff" rx="1" ry="1" transform="rotate(72.4 -48 109.7) scale(36.85733 26.13373)"/><ellipse fill="#172400" cx="182" cy="141" rx="24" ry="92"/><path fill="#d1d1e1" d="M-5.7 83.5l-36.4-26.4 65.8-90.6L60.1-7.1z"/><ellipse fill="#09473d" rx="1" ry="1" transform="rotate(160.4 43.1 38.9) scale(56.16031 17.35431)"/><ellipse fill="#1b3018" rx="1" ry="1" transform="matrix(-4.82265 -18.12487 73.7859 -19.6329 126 163.9)"/><ellipse fill="#b2b9ca" cx="156" rx="41" ry="38"/><ellipse fill="#b9aaa1" rx="1" ry="1" transform="matrix(14.13432 -16.1455 29.71904 26.01705 133.6 101.4)"/><path fill="#e8e8f4" d="M1 154l-4-41 40 69z"/><ellipse fill="#1c564b" rx="1" ry="1" transform="matrix(-18.96102 .66213 -1.08103 -30.95679 169.3 65.6)"/><path fill="#291c25" d="M31 161.5l31 17-21-60.9-17.7-17.4z"/></g></svg>