<svg xmlns="http://www.w3.org/2000/svg" viewBox="0 0 2850 1900"><filter id="b"><feGaussianBlur stdDeviation="12" /></filter><path fill="#252623" d="M0 0h2850v1892H0z"/><g filter="url(#b)" transform="translate(5.6 5.6) scale(11.13281)" fill-opacity=".5"><ellipse fill="#a59580" rx="1" ry="1" transform="matrix(40.32537 20.5561 -24.77874 48.609 80.8 51.7)"/><ellipse rx="1" ry="1" transform="matrix(253.3431 -29.02199 7.13384 62.27378 137 160.7)"/><ellipse fill="#a49685" cx="59" cy="80" rx="53" ry="14"/><ellipse fill="#53483a" rx="1" ry="1" transform="matrix(-14.63445 -15.8592 36.54844 -33.72593 133 34.2)"/><ellipse rx="1" ry="1" transform="rotate(67.5 33.2 170.2) scale(44.51749 22.68174)"/><ellipse fill="#9c958f" cx="95" cy="97" rx="37" ry="6"/><ellipse fill="#000002" rx="1" ry="1" transform="matrix(22.7699 -16.97216 38.88317 52.16578 236.8 13.3)"/><path fill="#262824" d="M152.7 94.8l-25.4 14-32-57.6 25.4-14z"/><ellipse fill="#5e5a4f" cx="80" cy="21" rx="54" ry="33"/><ellipse fill="#000002" cx="19" cy="122" rx="61" ry="30"/></g></svg>