<svg xmlns="http://www.w3.org/2000/svg" viewBox="0 0 2766 2077"><filter id="b"><feGaussianBlur stdDeviation="12" /></filter><path fill="#64677b" d="M0 0h2766v2074H0z"/><g filter="url(#b)" transform="translate(5.4 5.4) scale(10.80469)" fill-opacity=".5"><ellipse fill="#ffe1c8" rx="1" ry="1" transform="matrix(117.87775 -.84143 .24984 35.00072 107.4 65.5)"/><path fill="#001" d="M264 95l7 112-287-18z"/><ellipse fill="#1e91eb" rx="1" ry="1" transform="matrix(.04782 -30.70534 172.58692 .26878 112.5 17)"/><ellipse fill="#00000c" rx="1" ry="1" transform="rotate(-23.3 398.5 54.8) scale(48.72803 32.74205)"/><ellipse fill="#d27552" rx="1" ry="1" transform="rotate(167.2 75.2 50.6) scale(145.58739 21.03165)"/><ellipse fill="#e2e5ee" cx="87" cy="59" rx="97" ry="16"/><ellipse fill="#0a0c2b" cx="255" cy="164" rx="52" ry="94"/><ellipse fill="#86504e" rx="1" ry="1" transform="rotate(-143.8 38.6 31) scale(9.81731 36.85971)"/><ellipse fill="#004280" rx="1" ry="1" transform="rotate(-157.4 107.6 -21.5) scale(142.01005 20.92745)"/><ellipse fill="#7c637b" rx="1" ry="1" transform="matrix(-99.95572 43.41331 -11.85773 -27.30148 137.3 125)"/></g></svg>