<svg xmlns="http://www.w3.org/2000/svg" viewBox="0 0 2851 1900"><filter id="b"><feGaussianBlur stdDeviation="12" /></filter><path fill="#5a5345" d="M0 0h2851v1893H0z"/><g filter="url(#b)" transform="translate(5.6 5.6) scale(11.13672)" fill-opacity=".5"><ellipse fill="#dcf3ff" rx="1" ry="1" transform="matrix(-29.72059 -6.04672 13.37977 -65.76366 159.8 29.7)"/><ellipse fill="#331900" rx="1" ry="1" transform="rotate(-22.6 445.6 -33) scale(72.62773 63.54785)"/><path fill="#b4d1f3" d="M118 163l58-26 10 46z"/><ellipse fill="#1f2021" rx="1" ry="1" transform="matrix(35.78103 -102.17459 39.11248 13.697 236.8 77.4)"/><path fill="#6e4f1c" d="M8-16l-24 146 208-18z"/><ellipse fill="#eef3fc" rx="1" ry="1" transform="matrix(-13.34841 -26.7975 14.51573 -7.2306 155.2 41.2)"/><path fill="#babdc6" d="M171.7 61.5l32.4-17.9 8.2 14.9-32.4 17.9z"/><ellipse fill="#000002" cx="187" cy="110" rx="110" ry="6"/><path fill="#7e8881" d="M112 68h66v38h-66z"/><ellipse fill="#221f0e" rx="1" ry="1" transform="matrix(49.4188 -.91824 .32778 17.6409 43.5 6.7)"/></g></svg>