<svg xmlns="http://www.w3.org/2000/svg" viewBox="0 0 1652 1099"><filter id="b"><feGaussianBlur stdDeviation="12" /></filter><path fill="#3e4a44" d="M0 0h1652v1097H0z"/><g filter="url(#b)" transform="translate(3.2 3.2) scale(6.45313)" fill-opacity=".5"><ellipse fill="#f5bb9b" rx="1" ry="1" transform="matrix(67.85405 12.576 -3.29041 17.75348 155 118.4)"/><ellipse rx="1" ry="1" transform="matrix(72.52728 12.22042 -22.56366 133.91364 14.4 32.2)"/><ellipse fill="#577b84" rx="1" ry="1" transform="matrix(-25.97986 37.38012 -49.51993 -34.41725 187.1 62.2)"/><path fill="#ffeaea" d="M178 106h19v36h-19z"/><path fill="#c5a796" d="M80 167.5l54.6-39.5-44 4.5L131 185z"/><ellipse fill="#ffeaa9" cx="23" cy="139" rx="9" ry="9"/><ellipse fill="#00211c" rx="1" ry="1" transform="matrix(103.57034 -103.10973 47.11952 47.33001 23.8 31)"/><ellipse fill="#280100" rx="1" ry="1" transform="rotate(-163.9 42 64) scale(37.91302 15.80074)"/><ellipse fill="#7b6f57" rx="1" ry="1" transform="matrix(-26.10257 24.66612 -36.40742 -38.52764 241.7 158)"/><path fill="#560000" d="M181 126l-16-23-11 22z"/></g></svg>