<svg xmlns="http://www.w3.org/2000/svg" viewBox="0 0 2089 1175"><filter id="b"><feGaussianBlur stdDeviation="12" /></filter><path fill="#2b363a" d="M0 0h2089v1166H0z"/><g filter="url(#b)" transform="translate(4 4) scale(8.16016)" fill-opacity=".5"><ellipse fill="#d1f4ff" rx="1" ry="1" transform="matrix(22.77907 8.1672 -23.21298 64.7431 139 18.1)"/><ellipse rx="1" ry="1" transform="matrix(-35.71551 -42.86709 121.82938 -101.50442 214.2 105.4)"/><ellipse fill="#b0aa82" rx="1" ry="1" transform="matrix(-26.67765 9.29014 -5.13567 -14.74764 40.5 62)"/><ellipse fill="#000400" cx="47" cy="142" rx="51" ry="51"/><path fill="#65869f" d="M95 63h27v56H95z"/><path fill="#e9f5ff" d="M122 5h29v26h-29z"/><ellipse rx="1" ry="1" transform="matrix(-84.78632 63.89108 -28.67472 -38.05264 224.5 107.9)"/><ellipse fill="#4b6477" rx="1" ry="1" transform="matrix(17.36282 11.81394 -43.66062 64.16755 181.4 12)"/><path fill="#4f6e89" d="M83-16l24 84 18-84z"/><path fill="#000304" d="M166.4 143.9l-55-56 29-10.3L271 142.8z"/></g></svg>