<svg xmlns="http://www.w3.org/2000/svg" viewBox="0 0 1651 1101"><filter id="b"><feGaussianBlur stdDeviation="12" /></filter><path fill="#141f28" d="M0 0h1651v1096H0z"/><g filter="url(#b)" transform="translate(3.2 3.2) scale(6.44922)" fill-opacity=".5"><ellipse fill="#294160" cx="106" cy="7" rx="116" ry="44"/><ellipse fill="#070806" rx="1" ry="1" transform="matrix(-1.05533 50.61402 -254.94459 -5.31572 121.6 154.2)"/><ellipse fill="#33404b" cx="126" cy="89" rx="30" ry="28"/><ellipse fill="#475b79" rx="1" ry="1" transform="rotate(-91.3 61.8 -60.4) scale(12.61414 63.82045)"/><ellipse fill="#0a0f11" rx="1" ry="1" transform="matrix(13.70918 -63.40745 25.59533 5.5339 238 112.2)"/><ellipse fill="#132336" rx="1" ry="1" transform="matrix(-56.64049 -5.85322 2.02932 -19.6373 33.7 32.3)"/><ellipse fill="#17283a" rx="1" ry="1" transform="matrix(6.71373 19.21439 -113.67873 39.72068 161.1 40.2)"/><path fill="#0a1014" d="M0 51h38v119H0z"/><path fill="#3a4148" d="M85.8 72.3l21.5 32.8 6.5-19L78 57z"/><path fill="#455466" d="M127 73h13v16h-13z"/></g></svg>