<svg xmlns="http://www.w3.org/2000/svg" viewBox="0 0 2850 1903"><filter id="b"><feGaussianBlur stdDeviation="12" /></filter><path fill="#b1a9a5" d="M0 0h2850v1892H0z"/><g filter="url(#b)" transform="translate(5.6 5.6) scale(11.13281)" fill-opacity=".5"><ellipse fill="#160700" rx="1" ry="1" transform="rotate(-69.1 172 2.5) scale(17.95794 176.20035)"/><ellipse rx="1" ry="1" transform="matrix(78.62287 .58103 -.08012 10.8413 141.4 74.7)"/><path fill="#fff" d="M193.9 59.2l-199-3.4 1.2-69 199 3.4z"/><ellipse fill="#0b0000" rx="1" ry="1" transform="rotate(59 -24.3 301.3) scale(19.41508 32.01096)"/><ellipse fill="#fff4ee" rx="1" ry="1" transform="matrix(-37.96332 -22.6127 13.90137 -23.33831 225.4 48.7)"/><ellipse fill="#fff6ef" rx="1" ry="1" transform="matrix(-5.50422 20.68898 -48.69017 -12.95382 194 112.8)"/><ellipse fill="#583421" rx="1" ry="1" transform="matrix(-16.18586 -32.05477 10.86188 -5.48464 157.8 152.4)"/><ellipse cx="126" cy="72" rx="54" ry="7"/><ellipse fill="#88786e" cx="43" cy="113" rx="102" ry="22"/><path fill="#feffff" d="M106.4 61.6l-1.7-98 71-1.2 1.6 98z"/></g></svg>