<svg xmlns="http://www.w3.org/2000/svg" viewBox="0 0 3072 2048"><filter id="b"><feGaussianBlur stdDeviation="12" /></filter><path fill="#a6a8a6" d="M0 0h3072v2040H0z"/><g filter="url(#b)" transform="matrix(12 0 0 12 6 6)" fill-opacity=".5"><ellipse fill="#17000d" cx="126" cy="97" rx="30" ry="53"/><ellipse fill="#f3ffff" rx="1" ry="1" transform="matrix(1.35075 46.02889 -254.89027 7.47996 144.6 0)"/><ellipse fill="#744c2f" rx="1" ry="1" transform="matrix(55.5867 42.51954 -18.80253 24.58095 227.7 162.3)"/><ellipse fill="#8b7955" cx="52" cy="169" rx="68" ry="68"/><ellipse fill="#ceedf4" rx="1" ry="1" transform="matrix(-15.48553 45.15119 -61.34104 -21.03817 35 42.2)"/><ellipse fill="#c8eaee" rx="1" ry="1" transform="rotate(177.2 103.5 32.9) scale(54.34761 39.54004)"/><ellipse fill="#bb7e6d" cx="124" cy="166" rx="39" ry="31"/><path fill="#47164b" d="M99 46h56v76H99z"/><path fill="#f7c1a6" d="M172.8 131.7l-38.7-14.5 26.5 43.7 19.2 24.1z"/><ellipse fill="#522b40" cx="241" cy="168" rx="56" ry="16"/></g></svg>