<svg xmlns="http://www.w3.org/2000/svg" viewBox="0 0 2851 1899"><filter id="b"><feGaussianBlur stdDeviation="12" /></filter><path fill="#797249" d="M0 0h2851v1893H0z"/><g filter="url(#b)" transform="translate(5.6 5.6) scale(11.13672)" fill-opacity=".5"><ellipse fill="#0f0f0a" rx="1" ry="1" transform="matrix(68.43902 41.2923 -11.4063 18.90513 135.4 118.4)"/><ellipse fill="#fff2a0" rx="1" ry="1" transform="matrix(-43.8096 -15.51067 7.11929 -20.1083 244.4 24)"/><ellipse fill="#d3c98b" rx="1" ry="1" transform="matrix(7.32217 -15.29232 147.9317 70.83175 130.3 72.6)"/><ellipse fill="#0a1310" rx="1" ry="1" transform="matrix(11.58163 -22.012 63.99535 33.6712 138.5 17.2)"/><ellipse fill="#ffb95f" rx="1" ry="1" transform="matrix(40.60389 20.68787 -11.11628 21.81781 11.8 121.3)"/><path fill="#080c04" d="M72 60.6l-7.8 16.2L3.9 47.4l8-16.2z"/><ellipse rx="1" ry="1" transform="matrix(65.49214 25.14008 -5.59645 14.57925 19.7 169.2)"/><ellipse fill="#dec9a1" cx="76" cy="75" rx="4" ry="196"/><path fill="#f7a44e" d="M7.7-31.1L77.7 3 56.4 47l-70-34.2z"/><ellipse rx="1" ry="1" transform="matrix(.55501 24.55699 -7.407 .1674 27 79.4)"/></g></svg>