<svg xmlns="http://www.w3.org/2000/svg" viewBox="0 0 1650 1100"><filter id="b"><feGaussianBlur stdDeviation="12" /></filter><path fill="#9d9a97" d="M0 0h1650v1095H0z"/><g filter="url(#b)" transform="translate(3.2 3.2) scale(6.44531)" fill-opacity=".5"><ellipse rx="1" ry="1" transform="matrix(197.50976 -31.1021 6.58762 41.83379 167.1 149.6)"/><ellipse fill="#fff" rx="1" ry="1" transform="matrix(156.8705 2.63998 -.8993 53.4377 60 53.3)"/><ellipse fill="#fffff7" cx="46" cy="69" rx="57" ry="57"/><ellipse rx="1" ry="1" transform="rotate(15.2 -500.8 87.4) scale(9.66653 28.35741)"/><path d="M110 66h10v65h-10z"/><ellipse fill="#0a191b" rx="1" ry="1" transform="rotate(14.6 -448 1002.5) scale(75.88303 33.34118)"/><path fill="#d2b18d" d="M23 105h65v45H23z"/><ellipse fill="#8391ac" rx="1" ry="1" transform="matrix(89.0126 103.1221 -51.47177 44.42924 226.5 0)"/><path fill="#312e25" d="M118.5 140.2l95.1-23.8-106.6-8.1-44.2-1.9z"/><ellipse fill="#fff" rx="1" ry="1" transform="matrix(-19.15437 1.57478 -.70271 -8.54727 37 119.7)"/></g></svg>