<svg xmlns="http://www.w3.org/2000/svg" viewBox="0 0 2908 1801"><filter id="b"><feGaussianBlur stdDeviation="12" /></filter><path fill="#474216" d="M0 0h2908v1794H0z"/><g filter="url(#b)" transform="translate(5.7 5.7) scale(11.35938)" fill-opacity=".5"><ellipse fill="#8d8655" rx="1" ry="1" transform="matrix(-24.91555 49.6499 -23.97237 -12.02993 154 49)"/><ellipse rx="1" ry="1" transform="matrix(60.80283 -209.28472 22.8221 6.63044 20 6.7)"/><ellipse fill="#bf8738" rx="1" ry="1" transform="matrix(-11.8915 -12.40468 18.11794 -17.3684 55 120.6)"/><ellipse fill="#edb68a" rx="1" ry="1" transform="matrix(-13.70733 8.17138 -6.92933 -11.62382 131.6 57)"/><path fill="#9ba299" d="M178 10l30.7 8.9-6.6 23-30.8-8.8z"/><ellipse fill="#b05f1a" rx="1" ry="1" transform="matrix(-9.88023 8.61908 -18.79581 -21.54604 92.4 95)"/><ellipse fill="#0d1a00" cx="244" cy="27" rx="31" ry="41"/><path fill="#0f1d00" d="M162 41L-16-7l143-9z"/><ellipse fill="#1a1600" rx="1" ry="1" transform="rotate(-24.4 382.8 -156) scale(35.0033 32.07042)"/><ellipse fill="#0e0800" rx="1" ry="1" transform="rotate(72.2 -91.3 94.3) scale(60.29864 15.61173)"/></g></svg>