<svg xmlns="http://www.w3.org/2000/svg" viewBox="0 0 2850 1901"><filter id="b"><feGaussianBlur stdDeviation="12" /></filter><path fill="#393c38" d="M0 0h2850v1892H0z"/><g filter="url(#b)" transform="translate(5.6 5.6) scale(11.13281)" fill-opacity=".5"><ellipse fill="#ffc565" rx="1" ry="1" transform="matrix(13.12061 -4.93115 8.68159 23.09965 71.1 70.8)"/><ellipse fill="#786152" rx="1" ry="1" transform="matrix(36.14806 57.7027 -19.93672 12.48943 21.2 42)"/><ellipse fill="#1f2725" cx="169" cy="169" rx="193" ry="91"/><ellipse fill="#545757" cx="174" cy="10" rx="252" ry="25"/><ellipse fill="#664835" rx="1" ry="1" transform="rotate(-144.2 60.6 44.6) scale(43.86686 19.25835)"/><ellipse fill="#ffbc6f" rx="1" ry="1" transform="rotate(6.8 -497.6 611.7) scale(10.37449 15.19414)"/><ellipse fill="#0e2228" rx="1" ry="1" transform="matrix(56.74436 61.49327 -16.64336 15.35805 145.9 114.7)"/><path fill="#675954" d="M167.5 1.2l17-18.3 120 111.9-17 18.3z"/><ellipse fill="#263537" rx="1" ry="1" transform="matrix(17.758 -19.97082 55.15856 49.04681 179.1 60.1)"/><path fill="#b38d71" d="M-16 7.1l27.4 23.3L7-12.8 41.4-16z"/></g></svg>