<svg xmlns="http://www.w3.org/2000/svg" viewBox="0 0 2850 1900"><filter id="b"><feGaussianBlur stdDeviation="12" /></filter><path fill="#13171b" d="M0 0h2850v1892H0z"/><g filter="url(#b)" transform="translate(5.6 5.6) scale(11.13281)" fill-opacity=".5"><ellipse fill="#c77067" rx="1" ry="1" transform="rotate(-22.7 309.5 -511.4) scale(18.56939 20.97284)"/><ellipse fill="#283641" rx="1" ry="1" transform="matrix(15.58864 29.02862 -78.67864 42.25116 187.8 48.4)"/><ellipse fill="#000206" cx="107" cy="135" rx="255" ry="38"/><ellipse fill="#6c550a" cx="32" cy="81" rx="19" ry="18"/><ellipse fill="#4d4f19" rx="1" ry="1" transform="matrix(-13.5753 -15.18315 12.2103 -10.91728 128.4 80.9)"/><path fill="#b8736c" d="M231 66.9l.9 15-25 1.2-.8-15z"/><ellipse fill="#430c00" cx="81" cy="79" rx="18" ry="18"/><ellipse fill="#394154" cx="177" cy="83" rx="17" ry="17"/><ellipse fill="#162235" cx="220" cy="17" rx="107" ry="48"/><ellipse fill="#000408" rx="1" ry="1" transform="matrix(22.31784 9.9182 -53.01593 119.29597 0 55.5)"/></g></svg>