<svg xmlns="http://www.w3.org/2000/svg" viewBox="0 0 2850 1900"><filter id="b"><feGaussianBlur stdDeviation="12" /></filter><path fill="#5e594c" d="M0 0h2850v1892H0z"/><g filter="url(#b)" transform="translate(5.6 5.6) scale(11.13281)" fill-opacity=".5"><ellipse fill="#fff" cx="213" cy="33" rx="50" ry="79"/><ellipse cx="110" cy="48" rx="60" ry="36"/><ellipse fill="#230f00" rx="1" ry="1" transform="rotate(-117.1 54.7 49.6) scale(221.87308 53.50705)"/><ellipse fill="#f2dba6" rx="1" ry="1" transform="matrix(52.18967 6.11621 -1.70137 14.51777 128.2 95.9)"/><ellipse fill="#f1f1f5" cx="226" cy="21" rx="50" ry="50"/><ellipse cx="129" cy="35" rx="27" ry="61"/><ellipse cx="121" cy="126" rx="87" ry="9"/><path fill="#ff8700" d="M36.5 97.4L63 123l57.7-21.5 9.5-4.2z"/><ellipse fill="#fff" rx="1" ry="1" transform="matrix(.4383 10.34047 -26.43059 1.1203 88.1 0)"/><path fill="#11190d" d="M0 52h190v30H0z"/></g></svg>