<svg xmlns="http://www.w3.org/2000/svg" viewBox="0 0 1225 980"><filter id="b"><feGaussianBlur stdDeviation="12" /></filter><path fill="#707772" d="M0 0h1225v976H0z"/><g filter="url(#b)" transform="translate(2.4 2.4) scale(4.78516)" fill-opacity=".5"><ellipse rx="1" ry="1" transform="matrix(42.98067 -21.08306 30.43753 62.051 25 153.8)"/><ellipse fill="#fff" rx="1" ry="1" transform="matrix(2.84368 22.5497 -74.44173 9.38765 231 75.8)"/><path fill="#eff" d="M22 12L7 97l84-70z"/><ellipse cx="212" cy="190" rx="71" ry="22"/><ellipse fill="#cfdfed" rx="1" ry="1" transform="matrix(-46.97029 30.50286 -14.28823 -22.00194 175.6 145)"/><ellipse fill="#000600" rx="1" ry="1" transform="rotate(-5.5 909.6 -882.1) scale(59.77054 18.98981)"/><ellipse fill="#f2f4fd" cx="108" cy="186" rx="33" ry="15"/><ellipse fill="#adcbdf" rx="1" ry="1" transform="matrix(-40.19152 19.5521 -10.88956 -22.38471 178.4 9.4)"/><ellipse fill="#080900" rx="1" ry="1" transform="matrix(-32.32821 14.0861 -40.48486 -92.91448 13.8 157.2)"/><ellipse fill="#151b12" cx="115" cy="146" rx="22" ry="22"/></g></svg>