<svg xmlns="http://www.w3.org/2000/svg" viewBox="0 0 2850 1903"><filter id="b"><feGaussianBlur stdDeviation="12" /></filter><path fill="#433c3f" d="M0 0h2850v1892H0z"/><g filter="url(#b)" transform="translate(5.6 5.6) scale(11.13281)" fill-opacity=".5"><ellipse fill="#fff" rx="1" ry="1" transform="matrix(40.9097 -41.44273 37.49249 37.01027 141.2 84)"/><ellipse fill="#fffdff" rx="1" ry="1" transform="matrix(-4.22998 -62.00797 30.4509 -2.07726 143.8 83.5)"/><ellipse rx="1" ry="1" transform="rotate(24.8 34.4 156.6) scale(61.69551 255.00002)"/><ellipse rx="1" ry="1" transform="rotate(-73 189.8 -100.4) scale(216.58595 42.84218)"/><ellipse cx="179" cy="14" rx="42" ry="25"/><path fill="#ffa1cf" d="M227 59L109.5 36.5l-56.7 30-4.2 5.8z"/><ellipse rx="1" ry="1" transform="matrix(-135.67109 -201.66826 29.44691 -19.81023 39.4 131.3)"/><path fill="#fff" d="M158.2 128.1l-85-10 20.5-33.4 59.2 69.5z"/><ellipse fill="#ffd0ff" cx="168" cy="73" rx="35" ry="31"/><ellipse rx="1" ry="1" transform="matrix(-32.16284 1.12315 -5.97727 -171.1667 237.4 104.9)"/></g></svg>