<svg xmlns="http://www.w3.org/2000/svg" viewBox="0 0 2850 1900"><filter id="c"><feGaussianBlur stdDeviation="55" /></filter><path fill="#3a3f48" d="M0 0h2850v1892H0z"/><g filter='url(#c)' fill-opacity='.5'><ellipse fill="#e77f29" fill-opacity=".5" rx="1" ry="1" transform="rotate(23.4 -2089.6 3934.8) scale(298.74024 341.26466)"/><path fill="#c9b183" fill-opacity=".5" d="M3011.4 339.6l-734.7 178 556.6-545.4z"/><ellipse fill="#abbbf7" fill-opacity=".5" rx="1" ry="1" transform="matrix(21.45114 -224.31178 92.08203 8.80589 211.7 1183.2)"/><path fill="#0e131f" fill-opacity=".5" d="M2143 1530.8l-701.3-846.1 1580.9-278.4z"/><path fill="#bbc5ff" fill-opacity=".5" d="M2553.3 1240.5l26.2-299.5 133 11.7-26.1 299.4z"/><path fill="#99a7db" fill-opacity=".5" d="M506.5 996.4h100.2v445.3H506.5z"/><path fill="#21242e" fill-opacity=".5" d="M1330.4 1308.1l-835 133.6 378.5-924z"/><path fill="#ffb84e" fill-opacity=".5" d="M1675.5 974.1l-501-66.8 133.6 311.7z"/><ellipse fill="#25455c" fill-opacity=".5" rx="1" ry="1" transform="matrix(15.61474 -392.71796 1582.03055 62.90264 1071.6 237.3)"/><path fill="#000713" fill-opacity=".5" d="M2927.7 2065.1l-84.3-197.1 50.5-1527.7L2611.3 537z"/></g></svg>